<svg xmlns="http://www.w3.org/2000/svg" xmlns:xlink="http://www.w3.org/1999/xlink" contentStyleType="text/css" height="687px" preserveAspectRatio="none" style="width:479px;height:687px;background:#FFFFFF;" version="1.1" viewBox="0 0 479 687" width="479px" zoomAndPan="magnify"><defs/><g><!--class Profesional_M?dico--><g id="elem_Profesional_M&#233;dico"><rect codeLine="1" fill="#F1F1F1" height="48" id="Profesional_M&#233;dico" rx="2.5" ry="2.5" style="stroke:#181818;stroke-width:0.5;" width="166.1279" x="122" y="7"/><ellipse cx="137" cy="23" fill="#ADD1B2" rx="11" ry="11" style="stroke:#181818;stroke-width:1.0;"/><path d="M139.9688,28.6406 Q139.3906,28.9375 138.75,29.0781 Q138.1094,29.2344 137.4063,29.2344 Q134.9063,29.2344 133.5781,27.5938 Q132.2656,25.9375 132.2656,22.8125 Q132.2656,19.6875 133.5781,18.0313 Q134.9063,16.375 137.4063,16.375 Q138.1094,16.375 138.75,16.5313 Q139.4063,16.6875 139.9688,16.9844 L139.9688,19.7031 Q139.3438,19.125 138.75,18.8594 Q138.1563,18.5781 137.5313,18.5781 Q136.1875,18.5781 135.5,19.6563 Q134.8125,20.7188 134.8125,22.8125 Q134.8125,24.9063 135.5,25.9844 Q136.1875,27.0469 137.5313,27.0469 Q138.1563,27.0469 138.75,26.7813 Q139.3438,26.5 139.9688,25.9219 L139.9688,28.6406 Z " fill="#000000"/><text fill="#000000" font-family="sans-serif" font-size="14" lengthAdjust="spacing" textLength="134.1279" x="151" y="27.8467">Profesional_M&#233;dico</text><line style="stroke:#181818;stroke-width:0.5;" x1="123" x2="287.1279" y1="39" y2="39"/><line style="stroke:#181818;stroke-width:0.5;" x1="123" x2="287.1279" y1="47" y2="47"/></g><!--class Protocolos_M?dicos--><g id="elem_Protocolos_M&#233;dicos"><rect codeLine="3" fill="#F1F1F1" height="48" id="Protocolos_M&#233;dicos" rx="2.5" ry="2.5" style="stroke:#181818;stroke-width:0.5;" width="168.8555" x="9.5" y="632"/><ellipse cx="24.5" cy="648" fill="#ADD1B2" rx="11" ry="11" style="stroke:#181818;stroke-width:1.0;"/><path d="M27.4688,653.6406 Q26.8906,653.9375 26.25,654.0781 Q25.6094,654.2344 24.9063,654.2344 Q22.4063,654.2344 21.0781,652.5938 Q19.7656,650.9375 19.7656,647.8125 Q19.7656,644.6875 21.0781,643.0313 Q22.4063,641.375 24.9063,641.375 Q25.6094,641.375 26.25,641.5313 Q26.9063,641.6875 27.4688,641.9844 L27.4688,644.7031 Q26.8438,644.125 26.25,643.8594 Q25.6563,643.5781 25.0313,643.5781 Q23.6875,643.5781 23,644.6563 Q22.3125,645.7188 22.3125,647.8125 Q22.3125,649.9063 23,650.9844 Q23.6875,652.0469 25.0313,652.0469 Q25.6563,652.0469 26.25,651.7813 Q26.8438,651.5 27.4688,650.9219 L27.4688,653.6406 Z " fill="#000000"/><text fill="#000000" font-family="sans-serif" font-size="14" lengthAdjust="spacing" textLength="136.8555" x="38.5" y="652.8467">Protocolos_M&#233;dicos</text><line style="stroke:#181818;stroke-width:0.5;" x1="10.5" x2="177.3555" y1="664" y2="664"/><line style="stroke:#181818;stroke-width:0.5;" x1="10.5" x2="177.3555" y1="672" y2="672"/></g><!--class Centro_de_salud--><g id="elem_Centro_de_salud"><rect codeLine="5" fill="#F1F1F1" height="48" id="Centro_de_salud" rx="2.5" ry="2.5" style="stroke:#181818;stroke-width:0.5;" width="148.0947" x="59" y="382"/><ellipse cx="74" cy="398" fill="#ADD1B2" rx="11" ry="11" style="stroke:#181818;stroke-width:1.0;"/><path d="M76.9688,403.6406 Q76.3906,403.9375 75.75,404.0781 Q75.1094,404.2344 74.4063,404.2344 Q71.9063,404.2344 70.5781,402.5938 Q69.2656,400.9375 69.2656,397.8125 Q69.2656,394.6875 70.5781,393.0313 Q71.9063,391.375 74.4063,391.375 Q75.1094,391.375 75.75,391.5313 Q76.4063,391.6875 76.9688,391.9844 L76.9688,394.7031 Q76.3438,394.125 75.75,393.8594 Q75.1563,393.5781 74.5313,393.5781 Q73.1875,393.5781 72.5,394.6563 Q71.8125,395.7188 71.8125,397.8125 Q71.8125,399.9063 72.5,400.9844 Q73.1875,402.0469 74.5313,402.0469 Q75.1563,402.0469 75.75,401.7813 Q76.3438,401.5 76.9688,400.9219 L76.9688,403.6406 Z " fill="#000000"/><text fill="#000000" font-family="sans-serif" font-size="14" lengthAdjust="spacing" textLength="116.0947" x="88" y="402.8467">Centro_de_salud</text><line style="stroke:#181818;stroke-width:0.5;" x1="60" x2="206.0947" y1="414" y2="414"/><line style="stroke:#181818;stroke-width:0.5;" x1="60" x2="206.0947" y1="422" y2="422"/></g><!--class Urgencias--><g id="elem_Urgencias"><rect codeLine="7" fill="#F1F1F1" height="48" id="Urgencias" rx="2.5" ry="2.5" style="stroke:#181818;stroke-width:0.5;" width="101.8359" x="166" y="507"/><ellipse cx="181" cy="523" fill="#ADD1B2" rx="11" ry="11" style="stroke:#181818;stroke-width:1.0;"/><path d="M183.9688,528.6406 Q183.3906,528.9375 182.75,529.0781 Q182.1094,529.2344 181.4063,529.2344 Q178.9063,529.2344 177.5781,527.5938 Q176.2656,525.9375 176.2656,522.8125 Q176.2656,519.6875 177.5781,518.0313 Q178.9063,516.375 181.4063,516.375 Q182.1094,516.375 182.75,516.5313 Q183.4063,516.6875 183.9688,516.9844 L183.9688,519.7031 Q183.3438,519.125 182.75,518.8594 Q182.1563,518.5781 181.5313,518.5781 Q180.1875,518.5781 179.5,519.6563 Q178.8125,520.7188 178.8125,522.8125 Q178.8125,524.9063 179.5,525.9844 Q180.1875,527.0469 181.5313,527.0469 Q182.1563,527.0469 182.75,526.7813 Q183.3438,526.5 183.9688,525.9219 L183.9688,528.6406 Z " fill="#000000"/><text fill="#000000" font-family="sans-serif" font-size="14" lengthAdjust="spacing" textLength="69.8359" x="195" y="527.8467">Urgencias</text><line style="stroke:#181818;stroke-width:0.5;" x1="167" x2="266.8359" y1="539" y2="539"/><line style="stroke:#181818;stroke-width:0.5;" x1="167" x2="266.8359" y1="547" y2="547"/></g><!--class Paciente--><g id="elem_Paciente"><rect codeLine="9" fill="#F1F1F1" height="48" id="Paciente" rx="2.5" ry="2.5" style="stroke:#181818;stroke-width:0.5;" width="92.1973" x="231" y="257"/><ellipse cx="246" cy="273" fill="#ADD1B2" rx="11" ry="11" style="stroke:#181818;stroke-width:1.0;"/><path d="M248.9688,278.6406 Q248.3906,278.9375 247.75,279.0781 Q247.1094,279.2344 246.4063,279.2344 Q243.9063,279.2344 242.5781,277.5938 Q241.2656,275.9375 241.2656,272.8125 Q241.2656,269.6875 242.5781,268.0313 Q243.9063,266.375 246.4063,266.375 Q247.1094,266.375 247.75,266.5313 Q248.4063,266.6875 248.9688,266.9844 L248.9688,269.7031 Q248.3438,269.125 247.75,268.8594 Q247.1563,268.5781 246.5313,268.5781 Q245.1875,268.5781 244.5,269.6563 Q243.8125,270.7188 243.8125,272.8125 Q243.8125,274.9063 244.5,275.9844 Q245.1875,277.0469 246.5313,277.0469 Q247.1563,277.0469 247.75,276.7813 Q248.3438,276.5 248.9688,275.9219 L248.9688,278.6406 Z " fill="#000000"/><text fill="#000000" font-family="sans-serif" font-size="14" lengthAdjust="spacing" textLength="60.1973" x="260" y="277.8467">Paciente</text><line style="stroke:#181818;stroke-width:0.5;" x1="232" x2="322.1973" y1="289" y2="289"/><line style="stroke:#181818;stroke-width:0.5;" x1="232" x2="322.1973" y1="297" y2="297"/></g><!--class Historia_Cl?nica--><g id="elem_Historia_Cl&#237;nica"><rect codeLine="11" fill="#F1F1F1" height="48" id="Historia_Cl&#237;nica" rx="2.5" ry="2.5" style="stroke:#181818;stroke-width:0.5;" width="139.584" x="207" y="132"/><ellipse cx="222" cy="148" fill="#ADD1B2" rx="11" ry="11" style="stroke:#181818;stroke-width:1.0;"/><path d="M224.9688,153.6406 Q224.3906,153.9375 223.75,154.0781 Q223.1094,154.2344 222.4063,154.2344 Q219.9063,154.2344 218.5781,152.5938 Q217.2656,150.9375 217.2656,147.8125 Q217.2656,144.6875 218.5781,143.0313 Q219.9063,141.375 222.4063,141.375 Q223.1094,141.375 223.75,141.5313 Q224.4063,141.6875 224.9688,141.9844 L224.9688,144.7031 Q224.3438,144.125 223.75,143.8594 Q223.1563,143.5781 222.5313,143.5781 Q221.1875,143.5781 220.5,144.6563 Q219.8125,145.7188 219.8125,147.8125 Q219.8125,149.9063 220.5,150.9844 Q221.1875,152.0469 222.5313,152.0469 Q223.1563,152.0469 223.75,151.7813 Q224.3438,151.5 224.9688,150.9219 L224.9688,153.6406 Z " fill="#000000"/><text fill="#000000" font-family="sans-serif" font-size="14" lengthAdjust="spacing" textLength="107.584" x="236" y="152.8467">Historia_Cl&#237;nica</text><line style="stroke:#181818;stroke-width:0.5;" x1="208" x2="345.584" y1="164" y2="164"/><line style="stroke:#181818;stroke-width:0.5;" x1="208" x2="345.584" y1="172" y2="172"/></g><!--class Tratamiento--><g id="elem_Tratamiento"><rect codeLine="13" fill="#F1F1F1" height="48" id="Tratamiento" rx="2.5" ry="2.5" style="stroke:#181818;stroke-width:0.5;" width="118.0234" x="354" y="382"/><ellipse cx="369" cy="398" fill="#ADD1B2" rx="11" ry="11" style="stroke:#181818;stroke-width:1.0;"/><path d="M371.9688,403.6406 Q371.3906,403.9375 370.75,404.0781 Q370.1094,404.2344 369.4063,404.2344 Q366.9063,404.2344 365.5781,402.5938 Q364.2656,400.9375 364.2656,397.8125 Q364.2656,394.6875 365.5781,393.0313 Q366.9063,391.375 369.4063,391.375 Q370.1094,391.375 370.75,391.5313 Q371.4063,391.6875 371.9688,391.9844 L371.9688,394.7031 Q371.3438,394.125 370.75,393.8594 Q370.1563,393.5781 369.5313,393.5781 Q368.1875,393.5781 367.5,394.6563 Q366.8125,395.7188 366.8125,397.8125 Q366.8125,399.9063 367.5,400.9844 Q368.1875,402.0469 369.5313,402.0469 Q370.1563,402.0469 370.75,401.7813 Q371.3438,401.5 371.9688,400.9219 L371.9688,403.6406 Z " fill="#000000"/><text fill="#000000" font-family="sans-serif" font-size="14" lengthAdjust="spacing" textLength="86.0234" x="383" y="402.8467">Tratamiento</text><line style="stroke:#181818;stroke-width:0.5;" x1="355" x2="471.0234" y1="414" y2="414"/><line style="stroke:#181818;stroke-width:0.5;" x1="355" x2="471.0234" y1="422" y2="422"/></g><!--link Paciente to Centro_de_salud--><g id="link_Paciente_Centro_de_salud"><path codeLine="15" d="M246.11,305.22 C234.32,314.3 220.87,324.93 209,335 C191.21,350.08 176.254,363.7823 161.544,377.6623 " fill="none" id="Paciente-to-Centro_de_salud" style="stroke:#181818;stroke-width:1.0;"/><polygon fill="#181818" points="157.18,381.78,166.4711,378.5127,160.8166,378.3486,160.9808,372.6941,157.18,381.78" style="stroke:#181818;stroke-width:1.0;"/><text fill="#000000" font-family="sans-serif" font-size="13" lengthAdjust="spacing" textLength="40.5298" x="210" y="348.0669">Acude</text></g><!--link Historia_Cl?nica to Paciente--><g id="link_Historia_Cl&#237;nica_Paciente"><path codeLine="17" d="M277,180.14 C277,202.13 277,229.01 277,250.97 " fill="none" id="Historia_Cl&#237;nica-to-Paciente" style="stroke:#181818;stroke-width:1.0;"/><polygon fill="#181818" points="277,256.97,281,247.97,277,251.97,273,247.97,277,256.97" style="stroke:#181818;stroke-width:1.0;"/><text fill="#000000" font-family="sans-serif" font-size="13" lengthAdjust="spacing" textLength="35.7881" x="278" y="223.0669">Tiene</text></g><!--link Profesional_M?dico to Historia_Cl?nica--><g id="link_Profesional_M&#233;dico_Historia_Cl&#237;nica"><path codeLine="19" d="M218.54,55.14 C231.42,77.13 247.6397,104.8314 260.4897,126.7914 " fill="none" id="Profesional_M&#233;dico-to-Historia_Cl&#237;nica" style="stroke:#181818;stroke-width:1.0;"/><polygon fill="#181818" points="263.52,131.97,262.427,122.182,260.9948,127.6545,255.5222,126.2223,263.52,131.97" style="stroke:#181818;stroke-width:1.0;"/><text fill="#000000" font-family="sans-serif" font-size="13" lengthAdjust="spacing" textLength="56.9575" x="246" y="98.0669">Consulta</text></g><!--link Tratamiento to Historia_Cl?nica--><g id="link_Tratamiento_Historia_Cl&#237;nica"><path codeLine="21" d="M404.49,381.75 C390.22,344.11 359.31,268.18 322,210 C315.35,199.64 310.815,193.632 303.005,184.722 " fill="none" id="Tratamiento-to-Historia_Cl&#237;nica" style="stroke:#181818;stroke-width:1.0;"/><polygon fill="#181818" points="299.05,180.21,301.9744,189.6147,302.3458,183.97,307.9905,184.3414,299.05,180.21" style="stroke:#181818;stroke-width:1.0;"/><text fill="#000000" font-family="sans-serif" font-size="13" lengthAdjust="spacing" textLength="41.4058" x="373" y="285.5669">Forma</text></g><!--link Profesional_M?dico to Tratamiento--><g id="link_Profesional_M&#233;dico_Tratamiento"><path codeLine="23" d="M262.58,55.14 C296.98,71.74 338.92,97.3 365,132 C401.8,180.96 409.8,197.19 423,257 C427.6,277.83 424.06,283.69 423,305 C421.69,331.31 419.1585,355.4232 416.7185,375.6532 " fill="none" id="Profesional_M&#233;dico-to-Tratamiento" style="stroke:#181818;stroke-width:1.0;"/><polygon fill="#181818" points="416,381.61,421.0489,373.1537,416.5987,376.646,413.1065,372.1958,416,381.61" style="stroke:#181818;stroke-width:1.0;"/><text fill="#000000" font-family="sans-serif" font-size="13" lengthAdjust="spacing" textLength="43.7354" x="416" y="223.0669">Asigna</text></g><!--link Profesional_M?dico to Protocolos_M?dicos--><g id="link_Profesional_M&#233;dico_Protocolos_M&#233;dicos"><path codeLine="25" d="M121.76,49.14 C67.23,65.79 6,97.33 6,155 C6,155 6,155 6,532 C6,572.7 33.7614,605.2297 59.2214,627.6997 " fill="none" id="Profesional_M&#233;dico-to-Protocolos_M&#233;dicos" style="stroke:#181818;stroke-width:1.0;"/><polygon fill="#181818" points="63.72,631.67,59.619,622.7156,59.9712,628.3615,54.3253,628.7137,63.72,631.67" style="stroke:#181818;stroke-width:1.0;"/><text fill="#000000" font-family="sans-serif" font-size="13" lengthAdjust="spacing" textLength="78.6094" x="7" y="348.0669">Debe seguir</text></g><!--link Centro_de_salud to Urgencias--><g id="link_Centro_de_salud_Urgencias"><path codeLine="27" d="M148.8,430.14 C163.82,452.13 182.8973,480.0545 197.8873,502.0145 " fill="none" id="Centro_de_salud-to-Urgencias" style="stroke:#181818;stroke-width:1.0;"/><polygon fill="#181818" points="201.27,506.97,199.4997,497.2816,198.4511,502.8404,192.8923,501.7918,201.27,506.97" style="stroke:#181818;stroke-width:1.0;"/><text fill="#000000" font-family="sans-serif" font-size="13" lengthAdjust="spacing" textLength="35.7881" x="181" y="473.0669">Tiene</text></g><!--link Urgencias to Protocolos_M?dicos--><g id="link_Urgencias_Protocolos_M&#233;dicos"><path codeLine="29" d="M193.86,555.14 C171.87,577.13 143.2326,605.7674 121.2726,627.7274 " fill="none" id="Urgencias-to-Protocolos_M&#233;dicos" style="stroke:#181818;stroke-width:1.0;"/><polygon fill="#181818" points="117.03,631.97,126.2224,628.4345,120.5655,628.4345,120.5655,622.7776,117.03,631.97" style="stroke:#181818;stroke-width:1.0;"/><text fill="#000000" font-family="sans-serif" font-size="13" lengthAdjust="spacing" textLength="36.353" x="163" y="598.0669">Sigue</text></g><!--link Centro_de_salud to Protocolos_M?dicos--><g id="link_Centro_de_salud_Protocolos_M&#233;dicos"><path codeLine="31" d="M127.51,430.33 C122.89,450.53 116.37,480.57 112,507 C104.73,550.92 99.6948,596.6596 96.7848,625.8696 " fill="none" id="Centro_de_salud-to-Protocolos_M&#233;dicos" style="stroke:#181818;stroke-width:1.0;"/><polygon fill="#181818" points="96.19,631.84,101.0625,623.2809,96.6857,626.8646,93.1019,622.4878,96.19,631.84" style="stroke:#181818;stroke-width:1.0;"/><text fill="#000000" font-family="sans-serif" font-size="13" lengthAdjust="spacing" textLength="35.7881" x="113" y="535.5669">Tiene</text></g><!--link Centro_de_salud to Profesional_M?dico--><g id="link_Centro_de_salud_Profesional_M&#233;dico"><path codeLine="33" d="M137.51,381.63 C150.47,314.51 186.5326,127.6512 199.4126,60.9412 " fill="none" id="Centro_de_salud-to-Profesional_M&#233;dico" style="stroke:#181818;stroke-width:1.0;"/><polygon fill="#181818" points="200.55,55.05,194.9164,63.1285,199.6021,59.9593,202.7713,64.6451,200.55,55.05" style="stroke:#181818;stroke-width:1.0;"/><text fill="#000000" font-family="sans-serif" font-size="13" lengthAdjust="spacing" textLength="83.2939" x="170" y="223.0669">Formado por</text></g><!--link Paciente to Urgencias--><g id="link_Paciente_Urgencias"><path codeLine="35" d="M271.36,305.33 C259.89,352.72 235.4104,453.8981 224.0004,501.0781 " fill="none" id="Paciente-to-Urgencias" style="stroke:#181818;stroke-width:1.0;"/><polygon fill="#181818" points="222.59,506.91,228.5935,499.1024,223.7653,502.0501,220.8177,497.2219,222.59,506.91" style="stroke:#181818;stroke-width:1.0;"/><text fill="#000000" font-family="sans-serif" font-size="13" lengthAdjust="spacing" textLength="40.5298" x="252" y="410.5669">Acude</text></g><!--link Paciente to Tratamiento--><g id="link_Paciente_Tratamiento"><path codeLine="37" d="M292.17,305 C302.38,319.48 316.74,338 332,352 C344.01,363.02 353.4835,370.0758 366.9135,378.5958 " fill="none" id="Paciente-to-Tratamiento" style="stroke:#181818;stroke-width:1.0;"/><polygon fill="#181818" points="371.98,381.81,366.5231,373.6111,367.7579,379.1315,362.2375,380.3664,371.98,381.81" style="stroke:#181818;stroke-width:1.0;"/><text fill="#000000" font-family="sans-serif" font-size="13" lengthAdjust="spacing" textLength="36.353" x="333" y="348.0669">Sigue</text></g><!--SRC=[VP71QiCm38RlUGhJUrzWXy58ARiC2klEGRMr872jOTaFjKEVeYzM9qKXIPFSRElxV_sIhGSHSuhyYq8Sm3TVztz7bglAQYcnPS-Y5T5IZI55RXms0ZuxVVw9BGPBC70di5HGrFidIU98qDJ-VWjaGGld20ck7LlQgyhiz-_pLczczs6pmrrLlPZrl8eBU2w73boOiKTV38gcvY3P9oYoKQPL_CZn2XijHXvTSg4sRE4BAo-o0rxG2BQPOj7E5jBhXiMFfXxUDfo_gSsuuhciKFSLnNmgNP5ZyyTT-idVZcFhhqw0wVgUQHy0]--></g></svg>