<svg xmlns="http://www.w3.org/2000/svg" xmlns:xlink="http://www.w3.org/1999/xlink" contentStyleType="text/css" height="501px" preserveAspectRatio="none" style="width:598px;height:501px;background:#FFFFFF;" version="1.1" viewBox="0 0 598 501" width="598px" zoomAndPan="magnify"><defs/><g><g id="elem_Profesional_M&#233;dico"><rect fill="#F1F1F1" height="36.2969" style="stroke:#181818;stroke-width:0.5;" width="148.1279" x="309" y="7"/><text fill="#000000" font-family="sans-serif" font-size="14" lengthAdjust="spacing" textLength="134.1279" x="316" y="21.9951">Profesional_M&#233;dico</text><line style="stroke:#181818;stroke-width:0.5;" x1="310" x2="456.1279" y1="27.2969" y2="27.2969"/></g><g id="elem_Protocolos_M&#233;dicos"><rect fill="#F1F1F1" height="36.2969" style="stroke:#181818;stroke-width:0.5;" width="150.8555" x="21.5" y="459"/><text fill="#000000" font-family="sans-serif" font-size="14" lengthAdjust="spacing" textLength="136.8555" x="28.5" y="473.9951">Protocolos_M&#233;dicos</text><line style="stroke:#181818;stroke-width:0.5;" x1="22.5" x2="171.3555" y1="479.2969" y2="479.2969"/></g><g id="elem_Centro_de_salud"><rect fill="#F1F1F1" height="36.2969" style="stroke:#181818;stroke-width:0.5;" width="130.0947" x="180" y="120"/><text fill="#000000" font-family="sans-serif" font-size="14" lengthAdjust="spacing" textLength="116.0947" x="187" y="134.9951">Centro_de_salud</text><line style="stroke:#181818;stroke-width:0.5;" x1="181" x2="309.0947" y1="140.2969" y2="140.2969"/></g><g id="elem_Urgencias"><rect fill="#F1F1F1" height="36.2969" style="stroke:#181818;stroke-width:0.5;" width="83.8359" x="150" y="346"/><text fill="#000000" font-family="sans-serif" font-size="14" lengthAdjust="spacing" textLength="69.8359" x="157" y="360.9951">Urgencias</text><line style="stroke:#181818;stroke-width:0.5;" x1="151" x2="232.8359" y1="366.2969" y2="366.2969"/></g><g id="elem_Paciente"><rect fill="#F1F1F1" height="36.2969" style="stroke:#181818;stroke-width:0.5;" width="74.1973" x="290" y="233"/><text fill="#000000" font-family="sans-serif" font-size="14" lengthAdjust="spacing" textLength="60.1973" x="297" y="247.9951">Paciente</text><line style="stroke:#181818;stroke-width:0.5;" x1="291" x2="363.1973" y1="253.2969" y2="253.2969"/></g><g id="elem_Historia_Cl&#237;nica"><rect fill="#F1F1F1" height="36.2969" style="stroke:#181818;stroke-width:0.5;" width="121.584" x="369" y="459"/><text fill="#000000" font-family="sans-serif" font-size="14" lengthAdjust="spacing" textLength="107.584" x="376" y="473.9951">Historia_Cl&#237;nica</text><line style="stroke:#181818;stroke-width:0.5;" x1="370" x2="489.584" y1="479.2969" y2="479.2969"/></g><g id="elem_Tratamiento"><rect fill="#F1F1F1" height="36.2969" style="stroke:#181818;stroke-width:0.5;" width="100.0234" x="380" y="346"/><text fill="#000000" font-family="sans-serif" font-size="14" lengthAdjust="spacing" textLength="86.0234" x="387" y="360.9951">Tratamiento</text><line style="stroke:#181818;stroke-width:0.5;" x1="381" x2="479.0234" y1="366.2969" y2="366.2969"/></g><!--link Centro_de_salud to Paciente--><g id="link_Centro_de_salud_Paciente"><path codeLine="15" d="M262.18,156.15 C270.42,164.76 280.16,175.56 288,186 C299.33,201.09 307.4097,214.3742 314.8197,227.6142 " fill="none" id="Centro_de_salud-to-Paciente" style="stroke:#181818;stroke-width:1.0;"/><polygon fill="#181818" points="317.75,232.85,316.8451,223.0428,315.3081,228.4869,309.864,226.9499,317.75,232.85" style="stroke:#181818;stroke-width:1.0;"/><text fill="#000000" font-family="sans-serif" font-size="13" lengthAdjust="spacing" textLength="25.7524" x="301" y="199.0669">Cita</text></g><!--link Paciente to Centro_de_salud--><g id="link_Paciente_Centro_de_salud"><path codeLine="17" d="M289.79,240.37 C270.76,233.35 249.28,221.71 238,203 C229.52,188.93 231.1701,175.5979 235.7501,161.9579 " fill="none" id="Paciente-to-Centro_de_salud" style="stroke:#181818;stroke-width:1.0;"/><polygon fill="#181818" points="237.66,156.27,231.0032,163.5286,236.0684,161.0099,238.5871,166.0751,237.66,156.27" style="stroke:#181818;stroke-width:1.0;"/><text fill="#000000" font-family="sans-serif" font-size="13" lengthAdjust="spacing" textLength="40.5298" x="239" y="199.0669">Acude</text></g><!--link Paciente to Historia_Cl?nica--><g id="link_Paciente_Historia_Cl&#237;nica"><path codeLine="19" d="M322.52,269.32 C316.78,295.14 309.42,344.66 326,382 C341.01,415.81 369.822,439.3513 394.852,455.5413 " fill="none" id="Paciente-to-Historia_Cl&#237;nica" style="stroke:#181818;stroke-width:1.0;"/><polygon fill="#181818" points="399.89,458.8,394.5055,450.5533,395.6917,456.0844,390.1606,457.2706,399.89,458.8" style="stroke:#181818;stroke-width:1.0;"/><text fill="#000000" font-family="sans-serif" font-size="13" lengthAdjust="spacing" textLength="35.7881" x="327" y="368.5669">Tiene</text></g><!--link Profesional_M?dico to Historia_Cl?nica--><g id="link_Profesional_M&#233;dico_Historia_Cl&#237;nica"><path codeLine="21" d="M440.99,43.16 C483.2,59.65 533,89.22 533,137 C533,137 533,137 533,365 C533,396.61 522.88,405.28 502,429 C491.45,440.99 482.2978,448.1045 469.2078,455.8845 " fill="none" id="Profesional_M&#233;dico-to-Historia_Cl&#237;nica" style="stroke:#181818;stroke-width:1.0;"/><polygon fill="#181818" points="464.05,458.95,473.8303,457.7903,468.3481,456.3954,469.743,450.9132,464.05,458.95" style="stroke:#181818;stroke-width:1.0;"/><text fill="#000000" font-family="sans-serif" font-size="13" lengthAdjust="spacing" textLength="56.9575" x="534" y="255.5669">Consulta</text></g><!--link Tratamiento to Historia_Cl?nica--><g id="link_Tratamiento_Historia_Cl&#237;nica"><path codeLine="23" d="M430,382.34 C430,403.2 430,431.98 430,452.78 " fill="none" id="Tratamiento-to-Historia_Cl&#237;nica" style="stroke:#181818;stroke-width:1.0;"/><polygon fill="#181818" points="430,458.78,434,449.78,430,453.78,426,449.78,430,458.78" style="stroke:#181818;stroke-width:1.0;"/><text fill="#000000" font-family="sans-serif" font-size="13" lengthAdjust="spacing" textLength="62.1372" x="431" y="425.0669">Compone</text></g><!--link Profesional_M?dico to Tratamiento--><g id="link_Profesional_M&#233;dico_Tratamiento"><path codeLine="25" d="M387.99,43.29 C390.39,52.12 393.14,63.07 395,73 C414.22,175.68 424.698,294.9086 428.248,339.8986 " fill="none" id="Profesional_M&#233;dico-to-Tratamiento" style="stroke:#181818;stroke-width:1.0;"/><polygon fill="#181818" points="428.72,345.88,431.9996,336.5932,428.3267,340.8955,424.0244,337.2225,428.72,345.88" style="stroke:#181818;stroke-width:1.0;"/><text fill="#000000" font-family="sans-serif" font-size="13" lengthAdjust="spacing" textLength="43.7354" x="415" y="199.0669">Asigna</text></g><!--link Profesional_M?dico to Protocolos_M?dicos--><g id="link_Profesional_M&#233;dico_Protocolos_M&#233;dicos"><path codeLine="27" d="M308.97,32.65 C199.17,44.59 6,74.48 6,137 C6,137 6,137 6,365 C6,405.62 38.0179,436.0081 64.8279,455.2781 " fill="none" id="Profesional_M&#233;dico-to-Protocolos_M&#233;dicos" style="stroke:#181818;stroke-width:1.0;"/><polygon fill="#181818" points="69.7,458.78,64.7265,450.2792,65.6399,455.8618,60.0573,456.7753,69.7,458.78" style="stroke:#181818;stroke-width:1.0;"/><text fill="#000000" font-family="sans-serif" font-size="13" lengthAdjust="spacing" textLength="36.353" x="7" y="255.5669">Sigue</text></g><!--link Urgencias to Centro_de_salud--><g id="link_Urgencias_Centro_de_salud"><path codeLine="29" d="M191.43,345.86 C191,320.69 191.81,272.45 202,233 C209.27,204.85 221.6352,179.9289 231.8852,161.5689 " fill="none" id="Urgencias-to-Centro_de_salud" style="stroke:#181818;stroke-width:1.0;"/><polygon fill="#181818" points="234.81,156.33,226.9303,162.2385,232.3727,160.6957,233.9155,166.1381,234.81,156.33" style="stroke:#181818;stroke-width:1.0;"/><text fill="#000000" font-family="sans-serif" font-size="13" lengthAdjust="spacing" textLength="68.4912" x="203" y="255.5669">englobada</text></g><!--link Urgencias to Protocolos_M?dicos--><g id="link_Urgencias_Protocolos_M&#233;dicos"><path codeLine="31" d="M177.16,382.34 C159.31,403.2 133.4411,433.4214 115.6411,454.2214 " fill="none" id="Urgencias-to-Protocolos_M&#233;dicos" style="stroke:#181818;stroke-width:1.0;"/><polygon fill="#181818" points="111.74,458.78,120.6308,454.5428,114.9909,454.9811,114.5526,449.3413,111.74,458.78" style="stroke:#181818;stroke-width:1.0;"/><text fill="#000000" font-family="sans-serif" font-size="13" lengthAdjust="spacing" textLength="36.353" x="152" y="425.0669">Sigue</text></g><!--link Centro_de_salud to Protocolos_M?dicos--><g id="link_Centro_de_salud_Protocolos_M&#233;dicos"><path codeLine="33" d="M228.79,156.09 C221.08,164.68 212.03,175.49 205,186 C161.54,250.96 154.05,271.01 132,346 C120.2,386.14 109.2786,427.8876 102.8786,452.8776 " fill="none" id="Centro_de_salud-to-Protocolos_M&#233;dicos" style="stroke:#181818;stroke-width:1.0;"/><polygon fill="#181818" points="101.39,458.69,107.4978,450.9638,102.6305,453.8463,99.7479,448.979,101.39,458.69" style="stroke:#181818;stroke-width:1.0;"/><text fill="#000000" font-family="sans-serif" font-size="13" lengthAdjust="spacing" textLength="35.7881" x="148" y="312.0669">Tiene</text></g><!--link Profesional_M?dico to Centro_de_salud--><g id="link_Profesional_M&#233;dico_Centro_de_salud"><path codeLine="35" d="M361.74,43.1 C335.88,63.9 297.1552,95.0493 271.1852,115.9393 " fill="none" id="Profesional_M&#233;dico-to-Centro_de_salud" style="stroke:#181818;stroke-width:1.0;"/><polygon fill="#181818" points="266.51,119.7,276.0299,117.1758,270.406,116.5661,271.0157,110.9422,266.51,119.7" style="stroke:#181818;stroke-width:1.0;"/><text fill="#000000" font-family="sans-serif" font-size="13" lengthAdjust="spacing" textLength="62.1372" x="324" y="86.0669">Compone</text></g><!--link Paciente to Urgencias--><g id="link_Paciente_Urgencias"><path codeLine="37" d="M289.64,267.76 C273.37,275.69 254.7,286.34 240,299 C224.32,312.51 213.8243,326.8847 205.1143,340.7947 " fill="none" id="Paciente-to-Urgencias" style="stroke:#181818;stroke-width:1.0;"/><polygon fill="#181818" points="201.93,345.88,210.0966,340.3749,204.5836,341.6422,203.3162,336.1292,201.93,345.88" style="stroke:#181818;stroke-width:1.0;"/><text fill="#000000" font-family="sans-serif" font-size="13" lengthAdjust="spacing" textLength="40.5298" x="241" y="312.0669">Acude</text></g><!--link Paciente to Tratamiento--><g id="link_Paciente_Tratamiento"><path codeLine="39" d="M334.7,269.02 C341.42,282.7 352.1,301.88 365,316 C375.43,327.41 384.0422,334.4251 396.1122,342.4951 " fill="none" id="Paciente-to-Tratamiento" style="stroke:#181818;stroke-width:1.0;"/><polygon fill="#181818" points="401.1,345.83,395.8415,337.5025,396.9435,343.0509,391.395,344.1529,401.1,345.83" style="stroke:#181818;stroke-width:1.0;"/><text fill="#000000" font-family="sans-serif" font-size="13" lengthAdjust="spacing" textLength="36.353" x="366" y="312.0669">Sigue</text></g><!--SRC=[XP513e8m44NtFGLXpmLSc1WsRan8n3KPsah6r8vfow5SU0ekPi5GaG9kvx-P-VcVwflaBYaCNQL5qg2gK_SKo8an2feZJehiADcWvL8xGvMGbGNLYZ2_c4PgZl0b2-3eOHa6HxIE34ALg-wbaKDGIWCExZtjJSm-95cs3xTsIPgZWvInSJB8inLF7NWhv1oB37YmzF80ndcixkIaRQi66nFd6_ZzGPjF9bTwxnOR3HluGZz-xOnDspy9JQn48tMZg0O14RjzTx6NnOr_cSQU9X5D2mlsrXhz3UxZz0q0]--></g></svg>
