<svg xmlns="http://www.w3.org/2000/svg" xmlns:xlink="http://www.w3.org/1999/xlink" contentStyleType="text/css" height="444px" preserveAspectRatio="none" style="width:250px;height:444px;background:#FFFFFF;" version="1.1" viewBox="0 0 250 444" width="250px" zoomAndPan="magnify"><defs/><g><ellipse cx="137.5" cy="16" fill="#222222" rx="10" ry="10" style="stroke:#222222;stroke-width:1.0;"/><g id="Asignado"><rect fill="#F1F1F1" height="50" rx="12.5" ry="12.5" style="stroke:#181818;stroke-width:0.5;" width="84.5518" x="47" y="86"/><line style="stroke:#181818;stroke-width:0.5;" x1="47" x2="131.5518" y1="112.2969" y2="112.2969"/><text fill="#000000" font-family="sans-serif" font-size="14" lengthAdjust="spacing" textLength="64.5518" x="57" y="103.9951">Asignado</text></g><g id="No_Asignado"><rect fill="#F1F1F1" height="50" rx="12.5" ry="12.5" style="stroke:#181818;stroke-width:0.5;" width="110.5898" x="133" y="306"/><line style="stroke:#181818;stroke-width:0.5;" x1="133" x2="243.5898" y1="332.2969" y2="332.2969"/><text fill="#000000" font-family="sans-serif" font-size="14" lengthAdjust="spacing" textLength="90.5898" x="143" y="323.9951">No_Asignado</text></g><g id="En_Proceso"><rect fill="#F1F1F1" height="50" rx="12.5" ry="12.5" style="stroke:#181818;stroke-width:0.5;" width="99.6523" x="35.5" y="196"/><line style="stroke:#181818;stroke-width:0.5;" x1="35.5" x2="135.1523" y1="222.2969" y2="222.2969"/><text fill="#000000" font-family="sans-serif" font-size="14" lengthAdjust="spacing" textLength="79.6523" x="45.5" y="213.9951">En_Proceso</text></g><g id="Finalizado"><rect fill="#F1F1F1" height="50" rx="12.5" ry="12.5" style="stroke:#181818;stroke-width:0.5;" width="90.5537" x="7" y="306"/><line style="stroke:#181818;stroke-width:0.5;" x1="7" x2="97.5537" y1="332.2969" y2="332.2969"/><text fill="#000000" font-family="sans-serif" font-size="14" lengthAdjust="spacing" textLength="70.5537" x="17" y="323.9951">Finalizado</text></g><ellipse cx="120.5" cy="427" fill="none" rx="11" ry="11" style="stroke:#222222;stroke-width:1.0;"/><ellipse cx="120.5" cy="427" fill="#222222" rx="6" ry="6" style="stroke:#222222;stroke-width:1.0;"/><!--link *start* to Asignado--><g id="link_*start*_Asignado"><path d="M133.24,25.25 C126.31,38.68 115.0925,60.4186 104.7925,80.3686 " fill="none" id="*start*-to-Asignado" style="stroke:#181818;stroke-width:1.0;"/><polygon fill="#181818" points="102.04,85.7,109.7231,79.538,104.3338,81.2572,102.6146,75.8679,102.04,85.7" style="stroke:#181818;stroke-width:1.0;"/></g><!--link *start* to No_Asignado--><g id="link_*start*_No_Asignado"><path d="M139.09,25.93 C141.43,39.07 145.9,64.41 149.5,86 C162.92,166.4 176.9759,255.9316 183.8159,299.8116 " fill="none" id="*start*-to-No_Asignado" style="stroke:#181818;stroke-width:1.0;"/><polygon fill="#181818" points="184.74,305.74,187.3061,296.2313,183.9699,300.7997,179.4016,297.4635,184.74,305.74" style="stroke:#181818;stroke-width:1.0;"/></g><!--link Asignado to En_Proceso--><g id="link_Asignado_En_Proceso"><path d="M88.6,136.24 C87.94,154.02 87.2728,172.0841 86.6128,189.8441 " fill="none" id="Asignado-to-En_Proceso" style="stroke:#181818;stroke-width:1.0;"/><polygon fill="#181818" points="86.39,195.84,90.7215,186.9948,86.5757,190.8434,82.727,186.6977,86.39,195.84" style="stroke:#181818;stroke-width:1.0;"/></g><!--link En_Proceso to No_Asignado--><g id="link_En_Proceso_No_Asignado"><path d="M108.62,246.24 C125.58,264.02 144.3788,283.7383 161.3188,301.4983 " fill="none" id="En_Proceso-to-No_Asignado" style="stroke:#181818;stroke-width:1.0;"/><polygon fill="#181818" points="165.46,305.84,162.1426,296.5667,162.009,302.2219,156.3537,302.0883,165.46,305.84" style="stroke:#181818;stroke-width:1.0;"/></g><!--link En_Proceso to Finalizado--><g id="link_En_Proceso_Finalizado"><path d="M78.09,246.24 C72.66,264.02 67.0643,282.3422 61.6343,300.1022 " fill="none" id="En_Proceso-to-Finalizado" style="stroke:#181818;stroke-width:1.0;"/><polygon fill="#181818" points="59.88,305.84,66.3366,298.4028,61.3419,301.0585,58.6862,296.0638,59.88,305.84" style="stroke:#181818;stroke-width:1.0;"/></g><!--link Finalizado to *end*--><g id="link_Finalizado_*end*"><path d="M70.01,356.21 C84.65,376.44 101.1539,399.2582 111.0039,412.8782 " fill="none" id="Finalizado-to-*end*" style="stroke:#181818;stroke-width:1.0;"/><polygon fill="#181818" points="114.52,417.74,112.4871,408.1032,111.5899,413.6885,106.0047,412.7913,114.52,417.74" style="stroke:#181818;stroke-width:1.0;"/></g><!--link No_Asignado to *end*--><g id="link_No_Asignado_*end*"><path d="M170.99,356.21 C156.35,376.44 139.8461,399.2582 129.9961,412.8782 " fill="none" id="No_Asignado-to-*end*" style="stroke:#181818;stroke-width:1.0;"/><polygon fill="#181818" points="126.48,417.74,134.9953,412.7913,129.4101,413.6885,128.5129,408.1032,126.48,417.74" style="stroke:#181818;stroke-width:1.0;"/></g><!--SRC=[YzQArTMrKt0ipapFIqp9vug6yFtou-52C8O2IC8rBpwWA3yvjJYV2y5KGDU29kMMcPUOara5aa4mmJ90wxYGDCB40000]--></g></svg>