<svg xmlns="http://www.w3.org/2000/svg" xmlns:xlink="http://www.w3.org/1999/xlink" contentStyleType="text/css" height="554px" preserveAspectRatio="none" style="width:250px;height:554px;background:#FFFFFF;" version="1.1" viewBox="0 0 250 554" width="250px" zoomAndPan="magnify"><defs/><g><ellipse cx="182" cy="16" fill="#222222" rx="10" ry="10" style="stroke:#222222;stroke-width:1.0;"/><g id="Trabajando"><rect fill="#F1F1F1" height="50" rx="12.5" ry="12.5" style="stroke:#181818;stroke-width:0.5;" width="99.1465" x="71.5" y="86"/><line style="stroke:#181818;stroke-width:0.5;" x1="71.5" x2="170.6465" y1="112.2969" y2="112.2969"/><text fill="#000000" font-family="sans-serif" font-size="14" lengthAdjust="spacing" textLength="79.1465" x="81.5" y="103.9951">Trabajando</text></g><ellipse cx="185" cy="537" fill="none" rx="11" ry="11" style="stroke:#222222;stroke-width:1.0;"/><ellipse cx="185" cy="537" fill="#222222" rx="6" ry="6" style="stroke:#222222;stroke-width:1.0;"/><g id="De_Guardia"><rect fill="#F1F1F1" height="50" rx="12.5" ry="12.5" style="stroke:#181818;stroke-width:0.5;" width="101.8057" x="70" y="196"/><line style="stroke:#181818;stroke-width:0.5;" x1="70" x2="171.8057" y1="222.2969" y2="222.2969"/><text fill="#000000" font-family="sans-serif" font-size="14" lengthAdjust="spacing" textLength="81.8057" x="80" y="213.9951">De_Guardia</text></g><g id="En_Cita"><rect fill="#F1F1F1" height="50" rx="12.5" ry="12.5" style="stroke:#181818;stroke-width:0.5;" width="72.4521" x="7" y="306"/><line style="stroke:#181818;stroke-width:0.5;" x1="7" x2="79.4521" y1="332.2969" y2="332.2969"/><text fill="#000000" font-family="sans-serif" font-size="14" lengthAdjust="spacing" textLength="52.4521" x="17" y="323.9951">En_Cita</text></g><g id="No_Trabajando"><rect fill="#F1F1F1" height="50" rx="12.5" ry="12.5" style="stroke:#181818;stroke-width:0.5;" width="125.1846" x="64.5" y="416"/><line style="stroke:#181818;stroke-width:0.5;" x1="64.5" x2="189.6846" y1="442.2969" y2="442.2969"/><text fill="#000000" font-family="sans-serif" font-size="14" lengthAdjust="spacing" textLength="105.1846" x="74.5" y="433.9951">No_Trabajando</text></g><!--link *start* to Trabajando--><g id="link_*start*_Trabajando"><path d="M176.8,24.93 C168.04,38.28 153.3001,60.7525 140.1001,80.8825 " fill="none" id="*start*-to-Trabajando" style="stroke:#181818;stroke-width:1.0;"/><polygon fill="#181818" points="136.81,85.9,145.0902,80.5672,139.5518,81.7188,138.4002,76.1804,136.81,85.9" style="stroke:#181818;stroke-width:1.0;"/></g><!--link *start* to *end*--><g id="link_*start*_*end*"><path d="M186.39,25.24 C200.37,52.3 243,141.25 243,220 C243,220 243,220 243,332 C243,410.06 205.8387,493.3316 192.1687,521.5116 " fill="none" id="*start*-to-*end*" style="stroke:#181818;stroke-width:1.0;"/><polygon fill="#181818" points="189.55,526.91,197.077,520.5583,191.7323,522.4114,189.8792,517.0666,189.55,526.91" style="stroke:#181818;stroke-width:1.0;"/></g><!--link Trabajando to De_Guardia--><g id="link_Trabajando_De_Guardia"><path d="M121,136.24 C121,154.02 121,172.08 121,189.84 " fill="none" id="Trabajando-to-De_Guardia" style="stroke:#181818;stroke-width:1.0;"/><polygon fill="#181818" points="121,195.84,125,186.84,121,190.84,117,186.84,121,195.84" style="stroke:#181818;stroke-width:1.0;"/></g><!--link Trabajando to En_Cita--><g id="link_Trabajando_En_Cita"><path d="M94.23,136.08 C78.96,151.56 61.11,173.02 52,196 C37.65,232.2 37.7328,272.2074 39.8428,299.8174 " fill="none" id="Trabajando-to-En_Cita" style="stroke:#181818;stroke-width:1.0;"/><polygon fill="#181818" points="40.3,305.8,43.6026,296.5214,39.919,300.8145,35.6258,297.131,40.3,305.8" style="stroke:#181818;stroke-width:1.0;"/></g><!--link En_Cita to De_Guardia--><g id="link_En_Cita_De_Guardia"><path d="M71.92,305.84 C87.45,288.08 101.8554,269.2307 112.0054,251.4507 " fill="none" id="En_Cita-to-De_Guardia" style="stroke:#181818;stroke-width:1.0;"/><polygon fill="#181818" points="114.98,246.24,107.0442,252.073,112.5011,250.5823,113.9919,256.0392,114.98,246.24" style="stroke:#181818;stroke-width:1.0;"/></g><!--link De_Guardia to En_Cita--><g id="link_De_Guardia_En_Cita"><path d="M92.65,246.24 C77.26,264.02 62.8958,282.8872 52.6158,300.6472 " fill="none" id="De_Guardia-to-En_Cita" style="stroke:#181818;stroke-width:1.0;"/><polygon fill="#181818" points="49.61,305.84,57.5805,300.0546,52.1148,301.5126,50.6568,296.0469,49.61,305.84" style="stroke:#181818;stroke-width:1.0;"/></g><!--link En_Cita to En_Cita--><g id="link_En_Cita_En_Cita"><path d="M79.17,311.04 C97.53,308.13 114,314.78 114,331 C114,347.22 103.456,354.8093 85.096,351.8993 " fill="none" id="En_Cita-to-En_Cita" style="stroke:#181818;stroke-width:1.0;"/><polygon fill="#181818" points="79.17,350.96,87.4329,356.3196,84.1084,351.7427,88.6852,348.4182,79.17,350.96" style="stroke:#181818;stroke-width:1.0;"/></g><!--link De_Guardia to De_Guardia--><g id="link_De_Guardia_De_Guardia"><path d="M172.21,200.42 C191.29,199.75 207,206.61 207,221 C207,235.39 197.2863,242.4606 178.2063,241.7906 " fill="none" id="De_Guardia-to-De_Guardia" style="stroke:#181818;stroke-width:1.0;"/><polygon fill="#181818" points="172.21,241.58,181.0641,245.8934,177.2069,241.7555,181.3448,237.8983,172.21,241.58" style="stroke:#181818;stroke-width:1.0;"/></g><!--link De_Guardia to No_Trabajando--><g id="link_De_Guardia_No_Trabajando"><path d="M121.67,246.16 C122.82,288.07 125.0157,367.7523 126.1657,409.7323 " fill="none" id="De_Guardia-to-No_Trabajando" style="stroke:#181818;stroke-width:1.0;"/><polygon fill="#181818" points="126.33,415.73,130.082,406.6238,126.1931,410.7319,122.085,406.8429,126.33,415.73" style="stroke:#181818;stroke-width:1.0;"/></g><!--link En_Cita to No_Trabajando--><g id="link_En_Cita_No_Trabajando"><path d="M61.85,356.24 C75.69,374.02 90.7052,393.3447 104.5252,411.1047 " fill="none" id="En_Cita-to-No_Trabajando" style="stroke:#181818;stroke-width:1.0;"/><polygon fill="#181818" points="108.21,415.84,105.8397,406.2806,105.1394,411.894,99.526,411.1936,108.21,415.84" style="stroke:#181818;stroke-width:1.0;"/></g><!--link No_Trabajando to *end*--><g id="link_No_Trabajando_*end*"><path d="M141.94,466.21 C154.29,486.23 167.9784,508.4144 176.4784,522.1844 " fill="none" id="No_Trabajando-to-*end*" style="stroke:#181818;stroke-width:1.0;"/><polygon fill="#181818" points="179.63,527.29,178.3063,517.5305,177.0037,523.0353,171.4988,521.7327,179.63,527.29" style="stroke:#181818;stroke-width:1.0;"/></g><!--SRC=[YzQArTMrKmWfIanAp4hCIyddYeQ802akXAW2ICWbDTwzDB4e9JCHNSOrBzuvioIH2qgZgqOMXYb5IECJHZ84JSOlFnx9qSWseCgWy1IWFWC0]--></g></svg>