<svg xmlns="http://www.w3.org/2000/svg" xmlns:xlink="http://www.w3.org/1999/xlink" contentStyleType="text/css" height="774px" preserveAspectRatio="none" style="width:287px;height:774px;background:#FFFFFF;" version="1.1" viewBox="0 0 287 774" width="287px" zoomAndPan="magnify"><defs/><g><ellipse cx="194" cy="16" fill="#222222" rx="10" ry="10" style="stroke:#222222;stroke-width:1.0;"/><g id="Alta"><rect fill="#F1F1F1" height="50" rx="12.5" ry="12.5" style="stroke:#181818;stroke-width:0.5;" width="50" x="130" y="86"/><line style="stroke:#181818;stroke-width:0.5;" x1="130" x2="180" y1="112.2969" y2="112.2969"/><text fill="#000000" font-family="sans-serif" font-size="14" lengthAdjust="spacing" textLength="27.5352" x="141.2324" y="103.9951">Alta</text></g><g id="Enfermo"><rect fill="#F1F1F1" height="50" rx="12.5" ry="12.5" style="stroke:#181818;stroke-width:0.5;" width="79.2197" x="201.5" y="196"/><line style="stroke:#181818;stroke-width:0.5;" x1="201.5" x2="280.7197" y1="222.2969" y2="222.2969"/><text fill="#000000" font-family="sans-serif" font-size="14" lengthAdjust="spacing" textLength="59.2197" x="211.5" y="213.9951">Enfermo</text></g><g id="Citado"><rect fill="#F1F1F1" height="50" rx="12.5" ry="12.5" style="stroke:#181818;stroke-width:0.5;" width="65.1855" x="175.5" y="306"/><line style="stroke:#181818;stroke-width:0.5;" x1="175.5" x2="240.6855" y1="332.2969" y2="332.2969"/><text fill="#000000" font-family="sans-serif" font-size="14" lengthAdjust="spacing" textLength="45.1855" x="185.5" y="323.9951">Citado</text></g><g id="No_Citado"><rect fill="#F1F1F1" height="50" rx="12.5" ry="12.5" style="stroke:#181818;stroke-width:0.5;" width="91.2236" x="130.5" y="416"/><line style="stroke:#181818;stroke-width:0.5;" x1="130.5" x2="221.7236" y1="442.2969" y2="442.2969"/><text fill="#000000" font-family="sans-serif" font-size="14" lengthAdjust="spacing" textLength="71.2236" x="140.5" y="433.9951">No_Citado</text></g><g id="En_Espera"><rect fill="#F1F1F1" height="50" rx="12.5" ry="12.5" style="stroke:#181818;stroke-width:0.5;" width="92.6934" x="130.5" y="526"/><line style="stroke:#181818;stroke-width:0.5;" x1="130.5" x2="223.1934" y1="552.2969" y2="552.2969"/><text fill="#000000" font-family="sans-serif" font-size="14" lengthAdjust="spacing" textLength="72.6934" x="140.5" y="543.9951">En_Espera</text></g><g id="En_Tratamiento"><rect fill="#F1F1F1" height="50" rx="12.5" ry="12.5" style="stroke:#181818;stroke-width:0.5;" width="130.7422" x="59.5" y="636"/><line style="stroke:#181818;stroke-width:0.5;" x1="59.5" x2="190.2422" y1="662.2969" y2="662.2969"/><text fill="#000000" font-family="sans-serif" font-size="14" lengthAdjust="spacing" textLength="110.7422" x="69.5" y="653.9951">En_Tratamiento</text></g><ellipse cx="65" cy="757" fill="none" rx="11" ry="11" style="stroke:#222222;stroke-width:1.0;"/><ellipse cx="65" cy="757" fill="#222222" rx="6" ry="6" style="stroke:#222222;stroke-width:1.0;"/><!--link *start* to Alta--><g id="link_*start*_Alta"><path d="M190.4,25.58 C184.71,39.16 175.7286,60.5561 167.4286,80.3661 " fill="none" id="*start*-to-Alta" style="stroke:#181818;stroke-width:1.0;"/><polygon fill="#181818" points="165.11,85.9,172.2772,79.1449,167.0422,81.2884,164.8986,76.0534,165.11,85.9" style="stroke:#181818;stroke-width:1.0;"/></g><!--link *start* to Enfermo--><g id="link_*start*_Enfermo"><path d="M196.08,25.98 C202.94,55.6 223.6372,144.9945 234.0672,190.0645 " fill="none" id="*start*-to-Enfermo" style="stroke:#181818;stroke-width:1.0;"/><polygon fill="#181818" points="235.42,195.91,237.2879,186.2399,234.2927,191.0387,229.4939,188.0436,235.42,195.91" style="stroke:#181818;stroke-width:1.0;"/></g><!--reverse link Alta to Enfermo--><g id="link_Alta_Enfermo"><path d="M166.7405,141.2638 C178.3505,159.0438 194.23,178.08 210.93,195.84 " fill="none" id="Alta-backto-Enfermo" style="stroke:#181818;stroke-width:1.0;"/><polygon fill="#181818" points="163.46,136.24,165.0315,145.9627,166.1937,140.4265,171.7299,141.5887,163.46,136.24" style="stroke:#181818;stroke-width:1.0;"/></g><!--link Enfermo to Alta--><g id="link_Enfermo_Alta"><path d="M233.26,195.89 C220.5,176.06 202.3562,152.6191 184.2662,134.5591 " fill="none" id="Enfermo-to-Alta" style="stroke:#181818;stroke-width:1.0;"/><polygon fill="#181818" points="180.02,130.32,183.5632,139.5095,183.5585,133.8526,189.2153,133.8479,180.02,130.32" style="stroke:#181818;stroke-width:1.0;"/></g><!--link Enfermo to Citado--><g id="link_Enfermo_Citado"><path d="M233.59,246.24 C228.16,264.02 222.5643,282.3422 217.1343,300.1022 " fill="none" id="Enfermo-to-Citado" style="stroke:#181818;stroke-width:1.0;"/><polygon fill="#181818" points="215.38,305.84,221.8366,298.4028,216.8419,301.0585,214.1862,296.0638,215.38,305.84" style="stroke:#181818;stroke-width:1.0;"/></g><!--link Alta to Citado--><g id="link_Alta_Citado"><path d="M159.77,136.32 C165.16,163.25 174.45,207.91 184,246 C189.09,266.3 193.9573,283.3796 198.9373,300.0996 " fill="none" id="Alta-to-Citado" style="stroke:#181818;stroke-width:1.0;"/><polygon fill="#181818" points="200.65,305.85,201.9145,296.0827,199.2227,301.058,194.2473,298.3663,200.65,305.85" style="stroke:#181818;stroke-width:1.0;"/></g><!--link Citado to Citado--><g id="link_Citado_Citado"><path d="M240.64,311.36 C258.79,307.7 275.5,314.24 275.5,331 C275.5,347.76 264.6716,355.486 246.5216,351.826 " fill="none" id="Citado-to-Citado" style="stroke:#181818;stroke-width:1.0;"/><polygon fill="#181818" points="240.64,350.64,248.6717,356.3401,245.5413,351.6284,250.2531,348.498,240.64,350.64" style="stroke:#181818;stroke-width:1.0;"/></g><!--link Citado to No_Citado--><g id="link_Citado_No_Citado"><path d="M200.82,356.24 C195.55,374.02 190.1239,392.327 184.8639,410.087 " fill="none" id="Citado-to-No_Citado" style="stroke:#181818;stroke-width:1.0;"/><polygon fill="#181818" points="183.16,415.84,189.5511,408.3464,184.5799,411.0458,181.8805,406.0746,183.16,415.84" style="stroke:#181818;stroke-width:1.0;"/></g><!--link Citado to En_Espera--><g id="link_Citado_En_Espera"><path d="M221.39,356.08 C234.68,383.18 251.39,428.35 239,466 C231.52,488.73 219.2744,505.8818 205.2844,521.4918 " fill="none" id="Citado-to-En_Espera" style="stroke:#181818;stroke-width:1.0;"/><polygon fill="#181818" points="201.28,525.96,210.2654,521.9274,204.617,522.2365,204.3079,516.5881,201.28,525.96" style="stroke:#181818;stroke-width:1.0;"/></g><!--link No_Citado to En_Espera--><g id="link_No_Citado_En_Espera"><path d="M176.22,466.24 C176.39,484.02 176.5526,502.0803 176.7226,519.8403 " fill="none" id="No_Citado-to-En_Espera" style="stroke:#181818;stroke-width:1.0;"/><polygon fill="#181818" points="176.78,525.84,180.6937,516.8021,176.7321,520.8402,172.694,516.8787,176.78,525.84" style="stroke:#181818;stroke-width:1.0;"/></g><!--link En_Espera to En_Tratamiento--><g id="link_En_Espera_En_Tratamiento"><path d="M165.33,576.24 C156.77,594.02 147.7951,612.675 139.2351,630.435 " fill="none" id="En_Espera-to-En_Tratamiento" style="stroke:#181818;stroke-width:1.0;"/><polygon fill="#181818" points="136.63,635.84,144.1409,629.4693,138.8009,631.3359,136.9343,625.9958,136.63,635.84" style="stroke:#181818;stroke-width:1.0;"/></g><!--link En_Tratamiento to *end*--><g id="link_En_Tratamiento_*end*"><path d="M109.55,686.21 C96.77,706.23 82.5784,728.4626 73.7884,742.2326 " fill="none" id="En_Tratamiento-to-*end*" style="stroke:#181818;stroke-width:1.0;"/><polygon fill="#181818" points="70.56,747.29,78.7742,741.8561,73.2503,743.0755,72.031,737.5516,70.56,747.29" style="stroke:#181818;stroke-width:1.0;"/></g><!--link En_Tratamiento to Alta--><g id="link_En_Tratamiento_Alta"><path d="M116.08,635.86 C102.2,596.06 77,513.89 77,442 C77,330 77,330 77,330 C77,255.84 114.5081,180.535 137.1481,141.355 " fill="none" id="En_Tratamiento-to-Alta" style="stroke:#181818;stroke-width:1.0;"/><polygon fill="#181818" points="140.15,136.16,132.1837,141.9513,137.6484,140.4892,139.1105,145.9538,140.15,136.16" style="stroke:#181818;stroke-width:1.0;"/></g><!--link Alta to *end*--><g id="link_Alta_*end*"><path d="M129.72,131.18 C87.21,165.82 6,243.36 6,330 C6,330 6,330 6,552 C6,630.16 43.802,713.3909 57.712,741.5409 " fill="none" id="Alta-to-*end*" style="stroke:#181818;stroke-width:1.0;"/><polygon fill="#181818" points="60.37,746.92,59.969,737.0793,58.155,742.4374,52.7969,740.6233,60.37,746.92" style="stroke:#181818;stroke-width:1.0;"/></g><!--SRC=[YzQArTMrKt3CAKdaYeQmNVFIKejoyxb0OWeskhfm0IYj0DU0BE2SMPAO0jM4n8TGE4JyykCn1LtpubsB2rAB4hdWqcZYS1PCFAGeiIGnDpCrhmJaI6GkM0NGNzY4mLw0knUe2000]--></g></svg>