<svg xmlns="http://www.w3.org/2000/svg" xmlns:xlink="http://www.w3.org/1999/xlink" contentStyleType="text/css" height="687px" preserveAspectRatio="none" style="width:485px;height:687px;background:#FFFFFF;" version="1.1" viewBox="0 0 485 687" width="485px" zoomAndPan="magnify"><defs/><g><!--class Profesional_M?dico--><g id="elem_Profesional_M&#233;dico"><rect codeLine="1" fill="#F1F1F1" height="48" id="Profesional_M&#233;dico" rx="2.5" ry="2.5" style="stroke:#181818;stroke-width:0.5;" width="166.1279" x="61" y="7"/><ellipse cx="76" cy="23" fill="#ADD1B2" rx="11" ry="11" style="stroke:#181818;stroke-width:1.0;"/><path d="M78.9688,28.6406 Q78.3906,28.9375 77.75,29.0781 Q77.1094,29.2344 76.4063,29.2344 Q73.9063,29.2344 72.5781,27.5938 Q71.2656,25.9375 71.2656,22.8125 Q71.2656,19.6875 72.5781,18.0313 Q73.9063,16.375 76.4063,16.375 Q77.1094,16.375 77.75,16.5313 Q78.4063,16.6875 78.9688,16.9844 L78.9688,19.7031 Q78.3438,19.125 77.75,18.8594 Q77.1563,18.5781 76.5313,18.5781 Q75.1875,18.5781 74.5,19.6563 Q73.8125,20.7188 73.8125,22.8125 Q73.8125,24.9063 74.5,25.9844 Q75.1875,27.0469 76.5313,27.0469 Q77.1563,27.0469 77.75,26.7813 Q78.3438,26.5 78.9688,25.9219 L78.9688,28.6406 Z " fill="#000000"/><text fill="#000000" font-family="sans-serif" font-size="14" lengthAdjust="spacing" textLength="134.1279" x="90" y="27.8467">Profesional_M&#233;dico</text><line style="stroke:#181818;stroke-width:0.5;" x1="62" x2="226.1279" y1="39" y2="39"/><line style="stroke:#181818;stroke-width:0.5;" x1="62" x2="226.1279" y1="47" y2="47"/></g><!--class Protocolos_M?dicos--><g id="elem_Protocolos_M&#233;dicos"><rect codeLine="3" fill="#F1F1F1" height="48" id="Protocolos_M&#233;dicos" rx="2.5" ry="2.5" style="stroke:#181818;stroke-width:0.5;" width="168.8555" x="9.5" y="632"/><ellipse cx="24.5" cy="648" fill="#ADD1B2" rx="11" ry="11" style="stroke:#181818;stroke-width:1.0;"/><path d="M27.4688,653.6406 Q26.8906,653.9375 26.25,654.0781 Q25.6094,654.2344 24.9063,654.2344 Q22.4063,654.2344 21.0781,652.5938 Q19.7656,650.9375 19.7656,647.8125 Q19.7656,644.6875 21.0781,643.0313 Q22.4063,641.375 24.9063,641.375 Q25.6094,641.375 26.25,641.5313 Q26.9063,641.6875 27.4688,641.9844 L27.4688,644.7031 Q26.8438,644.125 26.25,643.8594 Q25.6563,643.5781 25.0313,643.5781 Q23.6875,643.5781 23,644.6563 Q22.3125,645.7188 22.3125,647.8125 Q22.3125,649.9063 23,650.9844 Q23.6875,652.0469 25.0313,652.0469 Q25.6563,652.0469 26.25,651.7813 Q26.8438,651.5 27.4688,650.9219 L27.4688,653.6406 Z " fill="#000000"/><text fill="#000000" font-family="sans-serif" font-size="14" lengthAdjust="spacing" textLength="136.8555" x="38.5" y="652.8467">Protocolos_M&#233;dicos</text><line style="stroke:#181818;stroke-width:0.5;" x1="10.5" x2="177.3555" y1="664" y2="664"/><line style="stroke:#181818;stroke-width:0.5;" x1="10.5" x2="177.3555" y1="672" y2="672"/></g><!--class Centro_de_salud--><g id="elem_Centro_de_salud"><rect codeLine="5" fill="#F1F1F1" height="48" id="Centro_de_salud" rx="2.5" ry="2.5" style="stroke:#181818;stroke-width:0.5;" width="148.0947" x="93" y="382"/><ellipse cx="108" cy="398" fill="#ADD1B2" rx="11" ry="11" style="stroke:#181818;stroke-width:1.0;"/><path d="M110.9688,403.6406 Q110.3906,403.9375 109.75,404.0781 Q109.1094,404.2344 108.4063,404.2344 Q105.9063,404.2344 104.5781,402.5938 Q103.2656,400.9375 103.2656,397.8125 Q103.2656,394.6875 104.5781,393.0313 Q105.9063,391.375 108.4063,391.375 Q109.1094,391.375 109.75,391.5313 Q110.4063,391.6875 110.9688,391.9844 L110.9688,394.7031 Q110.3438,394.125 109.75,393.8594 Q109.1563,393.5781 108.5313,393.5781 Q107.1875,393.5781 106.5,394.6563 Q105.8125,395.7188 105.8125,397.8125 Q105.8125,399.9063 106.5,400.9844 Q107.1875,402.0469 108.5313,402.0469 Q109.1563,402.0469 109.75,401.7813 Q110.3438,401.5 110.9688,400.9219 L110.9688,403.6406 Z " fill="#000000"/><text fill="#000000" font-family="sans-serif" font-size="14" lengthAdjust="spacing" textLength="116.0947" x="122" y="402.8467">Centro_de_salud</text><line style="stroke:#181818;stroke-width:0.5;" x1="94" x2="240.0947" y1="414" y2="414"/><line style="stroke:#181818;stroke-width:0.5;" x1="94" x2="240.0947" y1="422" y2="422"/></g><!--class Urgencias--><g id="elem_Urgencias"><rect codeLine="7" fill="#F1F1F1" height="48" id="Urgencias" rx="2.5" ry="2.5" style="stroke:#181818;stroke-width:0.5;" width="101.8359" x="169" y="507"/><ellipse cx="184" cy="523" fill="#ADD1B2" rx="11" ry="11" style="stroke:#181818;stroke-width:1.0;"/><path d="M186.9688,528.6406 Q186.3906,528.9375 185.75,529.0781 Q185.1094,529.2344 184.4063,529.2344 Q181.9063,529.2344 180.5781,527.5938 Q179.2656,525.9375 179.2656,522.8125 Q179.2656,519.6875 180.5781,518.0313 Q181.9063,516.375 184.4063,516.375 Q185.1094,516.375 185.75,516.5313 Q186.4063,516.6875 186.9688,516.9844 L186.9688,519.7031 Q186.3438,519.125 185.75,518.8594 Q185.1563,518.5781 184.5313,518.5781 Q183.1875,518.5781 182.5,519.6563 Q181.8125,520.7188 181.8125,522.8125 Q181.8125,524.9063 182.5,525.9844 Q183.1875,527.0469 184.5313,527.0469 Q185.1563,527.0469 185.75,526.7813 Q186.3438,526.5 186.9688,525.9219 L186.9688,528.6406 Z " fill="#000000"/><text fill="#000000" font-family="sans-serif" font-size="14" lengthAdjust="spacing" textLength="69.8359" x="198" y="527.8467">Urgencias</text><line style="stroke:#181818;stroke-width:0.5;" x1="170" x2="269.8359" y1="539" y2="539"/><line style="stroke:#181818;stroke-width:0.5;" x1="170" x2="269.8359" y1="547" y2="547"/></g><!--class Paciente--><g id="elem_Paciente"><rect codeLine="9" fill="#F1F1F1" height="48" id="Paciente" rx="2.5" ry="2.5" style="stroke:#181818;stroke-width:0.5;" width="92.1973" x="159" y="257"/><ellipse cx="174" cy="273" fill="#ADD1B2" rx="11" ry="11" style="stroke:#181818;stroke-width:1.0;"/><path d="M176.9688,278.6406 Q176.3906,278.9375 175.75,279.0781 Q175.1094,279.2344 174.4063,279.2344 Q171.9063,279.2344 170.5781,277.5938 Q169.2656,275.9375 169.2656,272.8125 Q169.2656,269.6875 170.5781,268.0313 Q171.9063,266.375 174.4063,266.375 Q175.1094,266.375 175.75,266.5313 Q176.4063,266.6875 176.9688,266.9844 L176.9688,269.7031 Q176.3438,269.125 175.75,268.8594 Q175.1563,268.5781 174.5313,268.5781 Q173.1875,268.5781 172.5,269.6563 Q171.8125,270.7188 171.8125,272.8125 Q171.8125,274.9063 172.5,275.9844 Q173.1875,277.0469 174.5313,277.0469 Q175.1563,277.0469 175.75,276.7813 Q176.3438,276.5 176.9688,275.9219 L176.9688,278.6406 Z " fill="#000000"/><text fill="#000000" font-family="sans-serif" font-size="14" lengthAdjust="spacing" textLength="60.1973" x="188" y="277.8467">Paciente</text><line style="stroke:#181818;stroke-width:0.5;" x1="160" x2="250.1973" y1="289" y2="289"/><line style="stroke:#181818;stroke-width:0.5;" x1="160" x2="250.1973" y1="297" y2="297"/></g><!--class Historia_Cl?nica--><g id="elem_Historia_Cl&#237;nica"><rect codeLine="11" fill="#F1F1F1" height="48" id="Historia_Cl&#237;nica" rx="2.5" ry="2.5" style="stroke:#181818;stroke-width:0.5;" width="139.584" x="179" y="132"/><ellipse cx="194" cy="148" fill="#ADD1B2" rx="11" ry="11" style="stroke:#181818;stroke-width:1.0;"/><path d="M196.9688,153.6406 Q196.3906,153.9375 195.75,154.0781 Q195.1094,154.2344 194.4063,154.2344 Q191.9063,154.2344 190.5781,152.5938 Q189.2656,150.9375 189.2656,147.8125 Q189.2656,144.6875 190.5781,143.0313 Q191.9063,141.375 194.4063,141.375 Q195.1094,141.375 195.75,141.5313 Q196.4063,141.6875 196.9688,141.9844 L196.9688,144.7031 Q196.3438,144.125 195.75,143.8594 Q195.1563,143.5781 194.5313,143.5781 Q193.1875,143.5781 192.5,144.6563 Q191.8125,145.7188 191.8125,147.8125 Q191.8125,149.9063 192.5,150.9844 Q193.1875,152.0469 194.5313,152.0469 Q195.1563,152.0469 195.75,151.7813 Q196.3438,151.5 196.9688,150.9219 L196.9688,153.6406 Z " fill="#000000"/><text fill="#000000" font-family="sans-serif" font-size="14" lengthAdjust="spacing" textLength="107.584" x="208" y="152.8467">Historia_Cl&#237;nica</text><line style="stroke:#181818;stroke-width:0.5;" x1="180" x2="317.584" y1="164" y2="164"/><line style="stroke:#181818;stroke-width:0.5;" x1="180" x2="317.584" y1="172" y2="172"/></g><!--class Tratamiento--><g id="elem_Tratamiento"><rect codeLine="13" fill="#F1F1F1" height="48" id="Tratamiento" rx="2.5" ry="2.5" style="stroke:#181818;stroke-width:0.5;" width="118.0234" x="291" y="382"/><ellipse cx="306" cy="398" fill="#ADD1B2" rx="11" ry="11" style="stroke:#181818;stroke-width:1.0;"/><path d="M308.9688,403.6406 Q308.3906,403.9375 307.75,404.0781 Q307.1094,404.2344 306.4063,404.2344 Q303.9063,404.2344 302.5781,402.5938 Q301.2656,400.9375 301.2656,397.8125 Q301.2656,394.6875 302.5781,393.0313 Q303.9063,391.375 306.4063,391.375 Q307.1094,391.375 307.75,391.5313 Q308.4063,391.6875 308.9688,391.9844 L308.9688,394.7031 Q308.3438,394.125 307.75,393.8594 Q307.1563,393.5781 306.5313,393.5781 Q305.1875,393.5781 304.5,394.6563 Q303.8125,395.7188 303.8125,397.8125 Q303.8125,399.9063 304.5,400.9844 Q305.1875,402.0469 306.5313,402.0469 Q307.1563,402.0469 307.75,401.7813 Q308.3438,401.5 308.9688,400.9219 L308.9688,403.6406 Z " fill="#000000"/><text fill="#000000" font-family="sans-serif" font-size="14" lengthAdjust="spacing" textLength="86.0234" x="320" y="402.8467">Tratamiento</text><line style="stroke:#181818;stroke-width:0.5;" x1="292" x2="408.0234" y1="414" y2="414"/><line style="stroke:#181818;stroke-width:0.5;" x1="292" x2="408.0234" y1="422" y2="422"/></g><!--link Paciente to Centro_de_salud--><g id="link_Paciente_Centro_de_salud"><path codeLine="15" d="M196.87,305.14 C193.69,314.39 190.07,325.17 187,335 C182.14,350.56 178.7098,362.44 174.8998,376.12 " fill="none" id="Paciente-to-Centro_de_salud" style="stroke:#181818;stroke-width:1.0;"/><polygon fill="#181818" points="173.29,381.9,179.558,374.3032,174.6315,377.0833,171.8513,372.1568,173.29,381.9" style="stroke:#181818;stroke-width:1.0;"/><text fill="#000000" font-family="sans-serif" font-size="13" lengthAdjust="spacing" textLength="51.7017" x="188" y="348.0669">acude a</text></g><!--link Paciente to Historia_Cl?nica--><g id="link_Paciente_Historia_Cl&#237;nica"><path codeLine="16" d="M229.4,256.83 C236.81,248.24 244.04,237.92 248,227 C253.43,212.03 254.0558,200.0295 252.8958,186.0395 " fill="none" id="Paciente-to-Historia_Cl&#237;nica" style="stroke:#181818;stroke-width:1.0;"/><polygon fill="#181818" points="252.4,180.06,249.1574,189.3598,252.8132,185.0429,257.13,188.6987,252.4,180.06" style="stroke:#181818;stroke-width:1.0;"/><text fill="#000000" font-family="sans-serif" font-size="13" lengthAdjust="spacing" textLength="38.9746" x="253" y="223.0669">posee</text></g><!--link Historia_Cl?nica to Paciente--><g id="link_Historia_Cl&#237;nica_Paciente"><path codeLine="19" d="M190.26,180.26 C178.18,187.87 167.02,197.65 160,210 C150.93,225.95 157.7053,239.0495 171.0953,252.4895 " fill="none" id="Historia_Cl&#237;nica-to-Paciente" style="stroke:#181818;stroke-width:1.0;"/><polygon fill="#181818" points="175.33,256.74,171.8116,247.541,171.8011,253.1979,166.1442,253.1873,175.33,256.74" style="stroke:#181818;stroke-width:1.0;"/><text fill="#000000" font-family="sans-serif" font-size="13" lengthAdjust="spacing" textLength="78.1714" x="161" y="223.0669">pertenece a</text></g><!--link Paciente to Tratamiento--><g id="link_Paciente_Tratamiento"><path codeLine="17" d="M232.27,305.14 C258.2,327.13 292.3951,356.128 318.2751,378.088 " fill="none" id="Paciente-to-Tratamiento" style="stroke:#181818;stroke-width:1.0;"/><polygon fill="#181818" points="322.85,381.97,318.5756,373.0971,319.0375,378.735,313.3996,379.197,322.85,381.97" style="stroke:#181818;stroke-width:1.0;"/><text fill="#000000" font-family="sans-serif" font-size="13" lengthAdjust="spacing" textLength="34.874" x="287" y="348.0669">sigue</text></g><!--link Historia_Cl?nica to Tratamiento--><g id="link_Historia_Cl&#237;nica_Tratamiento"><path codeLine="20" d="M276.34,180.16 C285,188.74 293.91,199.07 300,210 C331.65,266.78 343.0474,338.0267 347.2674,376.0067 " fill="none" id="Historia_Cl&#237;nica-to-Tratamiento" style="stroke:#181818;stroke-width:1.0;"/><polygon fill="#181818" points="347.93,381.97,350.9117,372.5833,347.3778,377.0006,342.9606,373.4668,347.93,381.97" style="stroke:#181818;stroke-width:1.0;"/><text fill="#000000" font-family="sans-serif" font-size="13" lengthAdjust="spacing" textLength="46.541" x="335" y="285.5669">incluye</text></g><!--link Tratamiento to Profesional_M?dico--><g id="link_Tratamiento_Profesional_M&#233;dico"><path codeLine="22" d="M362.17,381.93 C371.87,362.14 384.7,332.54 390,305 C405.21,226.03 388,194.18 337,132 C307.09,95.53 265.9539,73.0256 225.9739,57.3056 " fill="none" id="Tratamiento-to-Profesional_M&#233;dico" style="stroke:#181818;stroke-width:1.0;"/><polygon fill="#181818" points="220.39,55.11,227.3021,62.1259,225.0432,56.9396,230.2295,54.6808,220.39,55.11" style="stroke:#181818;stroke-width:1.0;"/><text fill="#000000" font-family="sans-serif" font-size="13" lengthAdjust="spacing" textLength="84.6968" x="393" y="223.0669">asignado por</text></g><!--link Profesional_M?dico to Protocolos_M?dicos--><g id="link_Profesional_M&#233;dico_Protocolos_M&#233;dicos"><path codeLine="24" d="M88.67,55.07 C50.27,75.18 6,108.46 6,155 C6,155 6,155 6,532 C6,572.7 33.7614,605.2297 59.2214,627.6997 " fill="none" id="Profesional_M&#233;dico-to-Protocolos_M&#233;dicos" style="stroke:#181818;stroke-width:1.0;"/><polygon fill="#181818" points="63.72,631.67,59.619,622.7156,59.9712,628.3615,54.3253,628.7137,63.72,631.67" style="stroke:#181818;stroke-width:1.0;"/><text fill="#000000" font-family="sans-serif" font-size="13" lengthAdjust="spacing" textLength="34.874" x="7" y="348.0669">sigue</text></g><!--link Profesional_M?dico to Historia_Cl?nica--><g id="link_Profesional_M&#233;dico_Historia_Cl&#237;nica"><path codeLine="25" d="M163.75,55.14 C182.52,77.13 206.7052,105.446 225.4452,127.406 " fill="none" id="Profesional_M&#233;dico-to-Historia_Cl&#237;nica" style="stroke:#181818;stroke-width:1.0;"/><polygon fill="#181818" points="229.34,131.97,226.5405,122.5274,226.0943,128.1666,220.4551,127.7205,229.34,131.97" style="stroke:#181818;stroke-width:1.0;"/><text fill="#000000" font-family="sans-serif" font-size="13" lengthAdjust="spacing" textLength="55.0278" x="204" y="98.0669">consulta</text></g><!--link Centro_de_salud to Urgencias--><g id="link_Centro_de_salud_Urgencias"><path codeLine="27" d="M176.97,430.14 C186.44,452.13 198.2462,479.4996 207.7062,501.4596 " fill="none" id="Centro_de_salud-to-Urgencias" style="stroke:#181818;stroke-width:1.0;"/><polygon fill="#181818" points="210.08,506.97,210.1929,497.1218,208.1018,502.378,202.8457,500.2869,210.08,506.97" style="stroke:#181818;stroke-width:1.0;"/><text fill="#000000" font-family="sans-serif" font-size="13" lengthAdjust="spacing" textLength="46.541" x="198" y="473.0669">incluye</text></g><!--link Centro_de_salud to Profesional_M?dico--><g id="link_Centro_de_salud_Profesional_M&#233;dico"><path codeLine="28" d="M155.02,381.9 C138.55,348.7 109.71,285.07 99,227 C87.46,164.47 112.8975,97.144 129.7775,60.714 " fill="none" id="Centro_de_salud-to-Profesional_M&#233;dico" style="stroke:#181818;stroke-width:1.0;"/><polygon fill="#181818" points="132.3,55.27,124.8869,61.7543,130.1979,59.8067,132.1456,65.1176,132.3,55.27" style="stroke:#181818;stroke-width:1.0;"/><text fill="#000000" font-family="sans-serif" font-size="13" lengthAdjust="spacing" textLength="48.4897" x="100" y="223.0669">emplea</text></g><!--link Centro_de_salud to Protocolos_M?dicos--><g id="link_Centro_de_salud_Protocolos_M&#233;dicos"><path codeLine="29" d="M150.6,430.02 C137.59,449.54 120.11,478.79 111,507 C97.25,549.58 94.4111,596.2007 93.9611,625.8407 " fill="none" id="Centro_de_salud-to-Protocolos_M&#233;dicos" style="stroke:#181818;stroke-width:1.0;"/><polygon fill="#181818" points="93.87,631.84,98.0062,622.9018,93.9459,626.8406,90.0071,622.7803,93.87,631.84" style="stroke:#181818;stroke-width:1.0;"/><text fill="#000000" font-family="sans-serif" font-size="13" lengthAdjust="spacing" textLength="38.5557" x="112" y="535.5669">aplica</text></g><!--link Urgencias to Protocolos_M?dicos--><g id="link_Urgencias_Protocolos_M&#233;dicos"><path codeLine="31" d="M196.3,555.14 C173.77,577.13 144.3729,605.8182 121.8829,627.7782 " fill="none" id="Urgencias-to-Protocolos_M&#233;dicos" style="stroke:#181818;stroke-width:1.0;"/><polygon fill="#181818" points="117.59,631.97,126.8239,628.5443,121.1674,628.4769,121.2349,622.8204,117.59,631.97" style="stroke:#181818;stroke-width:1.0;"/><text fill="#000000" font-family="sans-serif" font-size="13" lengthAdjust="spacing" textLength="70.2305" x="166" y="598.0669">se basa en</text></g><!--SRC=[VP4nRiCm34LtdKBmdWjqw9AbIu4CxMom51C8K4H3b8OUgKDFaOkLIYhNiPME4j__v2SnW8Wz93wIU8uGnjVBb_F8rXXijSp8WQMLf9Ns57FYqT4e48fht-_fH14zpDm1q2jAxVtY9NFoCEx3vJjwXBdPMu8CvmgpCKrcTxldTQydEm0MHnQ6UsxZhUJ4GhJY5fsK47ygIfZjP9Ljmcf5ALCal3Rkq_VEFc8edzLxyNzptIwzfj9H8ZYs4oSLzIxpArvVvI_68r5lDyXHIiYQngnMV9NCjrn6wO7zD7IU0i53HIS2J447qsdcpl_b9Vi10fRYy0C0]--></g></svg>