<svg xmlns="http://www.w3.org/2000/svg" xmlns:xlink="http://www.w3.org/1999/xlink" contentStyleType="text/css" height="727px" preserveAspectRatio="none" style="width:509px;height:727px;background:#FFFFFF;" version="1.1" viewBox="0 0 509 727" width="509px" zoomAndPan="magnify"><defs/><g><g id="elem_Profesional_M&#233;dico"><rect fill="#F1F1F1" height="36.2969" style="stroke:#181818;stroke-width:0.5;" width="148.1279" x="151" y="7"/><text fill="#000000" font-family="sans-serif" font-size="14" lengthAdjust="spacing" textLength="134.1279" x="158" y="21.9951">Profesional_M&#233;dico</text><line style="stroke:#181818;stroke-width:0.5;" x1="152" x2="298.1279" y1="27.2969" y2="27.2969"/></g><g id="elem_Protocolos_M&#233;dicos"><rect fill="#F1F1F1" height="36.2969" style="stroke:#181818;stroke-width:0.5;" width="150.8555" x="32.5" y="685"/><text fill="#000000" font-family="sans-serif" font-size="14" lengthAdjust="spacing" textLength="136.8555" x="39.5" y="699.9951">Protocolos_M&#233;dicos</text><line style="stroke:#181818;stroke-width:0.5;" x1="33.5" x2="182.3555" y1="705.2969" y2="705.2969"/></g><g id="elem_Centro_de_salud"><rect fill="#F1F1F1" height="36.2969" style="stroke:#181818;stroke-width:0.5;" width="130.0947" x="92" y="459"/><text fill="#000000" font-family="sans-serif" font-size="14" lengthAdjust="spacing" textLength="116.0947" x="99" y="473.9951">Centro_de_salud</text><line style="stroke:#181818;stroke-width:0.5;" x1="93" x2="221.0947" y1="479.2969" y2="479.2969"/></g><g id="elem_Urgencias"><rect fill="#F1F1F1" height="36.2969" style="stroke:#181818;stroke-width:0.5;" width="83.8359" x="183" y="572"/><text fill="#000000" font-family="sans-serif" font-size="14" lengthAdjust="spacing" textLength="69.8359" x="190" y="586.9951">Urgencias</text><line style="stroke:#181818;stroke-width:0.5;" x1="184" x2="265.8359" y1="592.2969" y2="592.2969"/></g><g id="elem_Paciente"><rect fill="#F1F1F1" height="36.2969" style="stroke:#181818;stroke-width:0.5;" width="74.1973" x="213" y="346"/><text fill="#000000" font-family="sans-serif" font-size="14" lengthAdjust="spacing" textLength="60.1973" x="220" y="360.9951">Paciente</text><line style="stroke:#181818;stroke-width:0.5;" x1="214" x2="286.1973" y1="366.2969" y2="366.2969"/></g><g id="elem_Historia_Cl&#237;nica"><rect fill="#F1F1F1" height="36.2969" style="stroke:#181818;stroke-width:0.5;" width="121.584" x="164" y="120"/><text fill="#000000" font-family="sans-serif" font-size="14" lengthAdjust="spacing" textLength="107.584" x="171" y="134.9951">Historia_Cl&#237;nica</text><line style="stroke:#181818;stroke-width:0.5;" x1="165" x2="284.584" y1="140.2969" y2="140.2969"/></g><g id="elem_Tratamiento"><rect fill="#F1F1F1" height="36.2969" style="stroke:#181818;stroke-width:0.5;" width="100.0234" x="303" y="233"/><text fill="#000000" font-family="sans-serif" font-size="14" lengthAdjust="spacing" textLength="86.0234" x="310" y="247.9951">Tratamiento</text><line style="stroke:#181818;stroke-width:0.5;" x1="304" x2="402.0234" y1="253.2969" y2="253.2969"/></g><!--link Centro_de_salud to Paciente--><g id="link_Centro_de_salud_Paciente"><path codeLine="15" d="M179.71,458.87 C189.95,450.52 201.78,439.92 211,429 C223.25,414.48 231.3922,401.0072 238.5522,387.5472 " fill="none" id="Centro_de_salud-to-Paciente" style="stroke:#181818;stroke-width:1.0;"/><polygon fill="#181818" points="241.37,382.25,233.6118,388.3172,239.0218,386.6643,240.6747,392.0743,241.37,382.25" style="stroke:#181818;stroke-width:1.0;"/><text fill="#000000" font-family="sans-serif" font-size="13" lengthAdjust="spacing" textLength="35.9214" x="224" y="425.0669">cita a</text></g><!--link Paciente to Centro_de_salud--><g id="link_Paciente_Centro_de_salud"><path codeLine="16" d="M212.9,372.06 C190.53,378.44 163.78,390.3 150,412 C141.13,425.97 142.9094,439.4959 147.6294,453.2259 " fill="none" id="Paciente-to-Centro_de_salud" style="stroke:#181818;stroke-width:1.0;"/><polygon fill="#181818" points="149.58,458.9,150.4368,449.0885,147.9545,454.1716,142.8714,451.6893,149.58,458.9" style="stroke:#181818;stroke-width:1.0;"/><text fill="#000000" font-family="sans-serif" font-size="13" lengthAdjust="spacing" textLength="51.7017" x="151" y="425.0669">acude a</text></g><!--link Paciente to Historia_Cl?nica--><g id="link_Paciente_Historia_Cl&#237;nica"><path codeLine="17" d="M248.07,345.74 C243.41,303.98 232.2349,203.863 227.5849,162.163 " fill="none" id="Paciente-to-Historia_Cl&#237;nica" style="stroke:#181818;stroke-width:1.0;"/><polygon fill="#181818" points="226.92,156.2,223.9421,165.5879,227.4741,161.1692,231.8928,164.7013,226.92,156.2" style="stroke:#181818;stroke-width:1.0;"/><text fill="#000000" font-family="sans-serif" font-size="13" lengthAdjust="spacing" textLength="38.9746" x="240" y="255.5669">posee</text></g><!--link Historia_Cl?nica to Tratamiento--><g id="link_Historia_Cl&#237;nica_Tratamiento"><path codeLine="18" d="M235.54,156.21 C244.57,169.99 258.53,189.23 274,203 C287.12,214.67 298.2945,222.0953 312.7645,230.0653 " fill="none" id="Historia_Cl&#237;nica-to-Tratamiento" style="stroke:#181818;stroke-width:1.0;"/><polygon fill="#181818" points="318.02,232.96,312.0665,225.1142,313.6404,230.5477,308.2069,232.1216,318.02,232.96" style="stroke:#181818;stroke-width:1.0;"/><text fill="#000000" font-family="sans-serif" font-size="13" lengthAdjust="spacing" textLength="60.2075" x="275" y="199.0669">compone</text></g><!--link Tratamiento to Paciente--><g id="link_Tratamiento_Paciente"><path codeLine="19" d="M336.91,269.34 C317.56,290.2 289.3611,320.5817 270.0611,341.3817 " fill="none" id="Tratamiento-to-Paciente" style="stroke:#181818;stroke-width:1.0;"/><polygon fill="#181818" points="265.98,345.78,275.0338,341.9033,269.3809,342.1148,269.1694,336.4619,265.98,345.78" style="stroke:#181818;stroke-width:1.0;"/><text fill="#000000" font-family="sans-serif" font-size="13" lengthAdjust="spacing" textLength="71.1128" x="308" y="312.0669">asignado a</text></g><!--link Tratamiento to Profesional_M?dico--><g id="link_Tratamiento_Profesional_M&#233;dico"><path codeLine="20" d="M368.63,232.9 C383.55,215.2 404.79,185.97 412,156 C420.98,118.66 417.62,97.43 388,73 C363.01,52.39 335.2658,42.0721 305.0558,35.5721 " fill="none" id="Tratamiento-to-Profesional_M&#233;dico" style="stroke:#181818;stroke-width:1.0;"/><polygon fill="#181818" points="299.19,34.31,307.1473,40.1136,304.0781,35.3617,308.83,32.2926,299.19,34.31" style="stroke:#181818;stroke-width:1.0;"/><text fill="#000000" font-family="sans-serif" font-size="13" lengthAdjust="spacing" textLength="84.6968" x="417" y="142.5669">asignado por</text></g><!--link Profesional_M?dico to Tratamiento--><g id="link_Profesional_M&#233;dico_Tratamiento"><path codeLine="22" d="M255.23,43.03 C267.25,50.93 280.45,61.2 290,73 C329.92,122.3 344.6413,192.9292 349.8413,226.8692 " fill="none" id="Profesional_M&#233;dico-to-Tratamiento" style="stroke:#181818;stroke-width:1.0;"/><polygon fill="#181818" points="350.75,232.8,353.3409,223.298,349.9928,227.8577,345.4331,224.5096,350.75,232.8" style="stroke:#181818;stroke-width:1.0;"/><text fill="#000000" font-family="sans-serif" font-size="13" lengthAdjust="spacing" textLength="40.6758" x="333" y="142.5669">define</text></g><!--link Profesional_M?dico to Historia_Cl?nica--><g id="link_Profesional_M&#233;dico_Historia_Cl&#237;nica"><path codeLine="21" d="M225,43.34 C225,64.2 225,92.98 225,113.78 " fill="none" id="Profesional_M&#233;dico-to-Historia_Cl&#237;nica" style="stroke:#181818;stroke-width:1.0;"/><polygon fill="#181818" points="225,119.78,229,110.78,225,114.78,221,110.78,225,119.78" style="stroke:#181818;stroke-width:1.0;"/><text fill="#000000" font-family="sans-serif" font-size="13" lengthAdjust="spacing" textLength="55.0278" x="226" y="86.0669">consulta</text></g><!--link Profesional_M?dico to Protocolos_M?dicos--><g id="link_Profesional_M&#233;dico_Protocolos_M&#233;dicos"><path codeLine="23" d="M150.86,33.14 C87.32,43.83 6,70.5 6,137 C6,137 6,137 6,591 C6,633.14 41.2521,662.9999 71.2021,681.7199 " fill="none" id="Profesional_M&#233;dico-to-Protocolos_M&#233;dicos" style="stroke:#181818;stroke-width:1.0;"/><polygon fill="#181818" points="76.29,684.9,70.7783,676.7379,72.0501,682.2499,66.5381,683.5217,76.29,684.9" style="stroke:#181818;stroke-width:1.0;"/><text fill="#000000" font-family="sans-serif" font-size="13" lengthAdjust="spacing" textLength="38.5557" x="7" y="368.5669">aplica</text></g><!--link Centro_de_salud to Profesional_M?dico--><g id="link_Centro_de_salud_Profesional_M&#233;dico"><path codeLine="24" d="M141.46,458.99 C124.28,438.35 99,401.75 99,365 C99,137 99,137 99,137 C99,91.81 139.784,63.2529 176.234,45.7029 " fill="none" id="Centro_de_salud-to-Profesional_M&#233;dico" style="stroke:#181818;stroke-width:1.0;"/><polygon fill="#181818" points="181.64,43.1,171.7957,43.4003,177.135,45.2691,175.2662,50.6083,181.64,43.1" style="stroke:#181818;stroke-width:1.0;"/><text fill="#000000" font-family="sans-serif" font-size="13" lengthAdjust="spacing" textLength="48.4897" x="100" y="255.5669">emplea</text></g><!--link Centro_de_salud to Protocolos_M?dicos--><g id="link_Centro_de_salud_Protocolos_M&#233;dicos"><path codeLine="25" d="M150.34,495.06 C143.3,513.69 132.37,544.55 126,572 C116.73,611.95 112.1331,654.0137 109.9031,679.0137 " fill="none" id="Centro_de_salud-to-Protocolos_M&#233;dicos" style="stroke:#181818;stroke-width:1.0;"/><polygon fill="#181818" points="109.37,684.99,114.1538,676.381,109.8142,680.0098,106.1854,675.6702,109.37,684.99" style="stroke:#181818;stroke-width:1.0;"/><text fill="#000000" font-family="sans-serif" font-size="13" lengthAdjust="spacing" textLength="38.9619" x="127" y="594.5669">utiliza</text></g><!--link Centro_de_salud to Urgencias--><g id="link_Centro_de_salud_Urgencias"><path codeLine="26" d="M167.62,495.34 C180.4,516.2 198.5761,545.8635 211.3161,566.6635 " fill="none" id="Centro_de_salud-to-Urgencias" style="stroke:#181818;stroke-width:1.0;"/><polygon fill="#181818" points="214.45,571.78,213.1602,562.016,211.8384,567.5162,206.3382,566.1945,214.45,571.78" style="stroke:#181818;stroke-width:1.0;"/><text fill="#000000" font-family="sans-serif" font-size="13" lengthAdjust="spacing" textLength="46.541" x="196" y="538.0669">incluye</text></g><!--link Urgencias to Protocolos_M?dicos--><g id="link_Urgencias_Protocolos_M&#233;dicos"><path codeLine="27" d="M206.98,608.1 C185.05,628.9 152.6129,659.6805 130.5929,680.5705 " fill="none" id="Urgencias-to-Protocolos_M&#233;dicos" style="stroke:#181818;stroke-width:1.0;"/><polygon fill="#181818" points="126.24,684.7,135.5223,681.4077,129.8674,681.2588,130.0163,675.6039,126.24,684.7" style="stroke:#181818;stroke-width:1.0;"/><text fill="#000000" font-family="sans-serif" font-size="13" lengthAdjust="spacing" textLength="70.2305" x="174" y="651.0669">se basa en</text></g><!--link Paciente to Urgencias--><g id="link_Paciente_Urgencias"><path codeLine="28" d="M258.42,382.41 C262.15,391.08 266.12,401.86 268,412 C269.37,419.43 268.56,421.47 268,429 C264.21,479.65 267.33,493.91 251,542 C247.46,552.42 244.7706,558.0893 239.5506,566.6993 " fill="none" id="Paciente-to-Urgencias" style="stroke:#181818;stroke-width:1.0;"/><polygon fill="#181818" points="236.44,571.83,244.5264,566.2077,239.0322,567.5544,237.6854,562.0602,236.44,571.83" style="stroke:#181818;stroke-width:1.0;"/><text fill="#000000" font-family="sans-serif" font-size="13" lengthAdjust="spacing" textLength="96.6431" x="267" y="481.5669">es atendido en</text></g><!--SRC=[VP8nRiCm34LtdqBmdWjqw9AbIu0CxMmm4XEma4L1b8RqHXrwYbmiT82ehcLtvN-V_1J5fq-qsHmJdr680_ZXSFjsPBdhk6gPBNkMfoHLssF8YGU7Wu0lhjO_qWM39VWbZs19OQo5DvBCYM3O-zjF80jLUK-GOPne3R6OO7QxrzhhnVIMCXZeksVfeIyyYe4j3XkkYQ1aP47ikqPw66R9fjayHWuApyhBV21q2U1ucjrWxQFF7P6JvcsPpUYMWnIVOTlrDx_3Cqtnj-YLmq_vejTn_VfXLZV2CNhSTgpCA9ayVMrOwjzIa8BrvQexrE8_NGND2GGCXiK_c7T4CP0nED8BA7W7]--></g></svg>