<svg xmlns="http://www.w3.org/2000/svg" xmlns:xlink="http://www.w3.org/1999/xlink" contentStyleType="text/css" height="639px" preserveAspectRatio="none" style="width:609px;height:639px;background:#FFFFFF;" version="1.1" viewBox="0 0 609 639" width="609px" zoomAndPan="magnify"><defs/><g><ellipse cx="377.5" cy="16" fill="#222222" rx="10" ry="10" style="stroke:#222222;stroke-width:1.0;"/><g id="Trabajando"><rect fill="#F1F1F1" height="50" rx="12.5" ry="12.5" style="stroke:#181818;stroke-width:0.5;" width="99.1465" x="328" y="103"/><line style="stroke:#181818;stroke-width:0.5;" x1="328" x2="427.1465" y1="129.2969" y2="129.2969"/><text fill="#000000" font-family="sans-serif" font-size="14" lengthAdjust="spacing" textLength="79.1465" x="338" y="120.9951">Trabajando</text></g><g id="De_Guardia"><rect fill="#F1F1F1" height="50" rx="12.5" ry="12.5" style="stroke:#181818;stroke-width:0.5;" width="101.8057" x="113.5" y="230"/><line style="stroke:#181818;stroke-width:0.5;" x1="113.5" x2="215.3057" y1="256.2969" y2="256.2969"/><text fill="#000000" font-family="sans-serif" font-size="14" lengthAdjust="spacing" textLength="81.8057" x="123.5" y="247.9951">De_Guardia</text></g><g id="En_Cita"><rect fill="#F1F1F1" height="50" rx="12.5" ry="12.5" style="stroke:#181818;stroke-width:0.5;" width="72.4521" x="255.5" y="357"/><line style="stroke:#181818;stroke-width:0.5;" x1="255.5" x2="327.9521" y1="383.2969" y2="383.2969"/><text fill="#000000" font-family="sans-serif" font-size="14" lengthAdjust="spacing" textLength="52.4521" x="265.5" y="374.9951">En_Cita</text></g><g id="No_Trabajando"><rect fill="#F1F1F1" height="50" rx="12.5" ry="12.5" style="stroke:#181818;stroke-width:0.5;" width="125.1846" x="7" y="484"/><line style="stroke:#181818;stroke-width:0.5;" x1="7" x2="132.1846" y1="510.2969" y2="510.2969"/><text fill="#000000" font-family="sans-serif" font-size="14" lengthAdjust="spacing" textLength="105.1846" x="17" y="501.9951">No_Trabajando</text></g><ellipse cx="69.5" cy="622" fill="none" rx="11" ry="11" style="stroke:#222222;stroke-width:1.0;"/><ellipse cx="69.5" cy="622" fill="#222222" rx="6" ry="6" style="stroke:#222222;stroke-width:1.0;"/><!--link *start* to Trabajando--><g id="link_*start*_Trabajando"><path d="M377.5,26 C377.5,42.63 377.5,72.66 377.5,96.87 " fill="none" id="*start*-to-Trabajando" style="stroke:#181818;stroke-width:1.0;"/><polygon fill="#181818" points="377.5,102.87,381.5,93.87,377.5,97.87,373.5,93.87,377.5,102.87" style="stroke:#181818;stroke-width:1.0;"/><text fill="#000000" font-family="sans-serif" font-size="13" lengthAdjust="spacing" textLength="105.7456" x="378.5" y="69.0669">"Inicio de turno"</text></g><!--link Trabajando to De_Guardia--><g id="link_Trabajando_De_Guardia"><path d="M336.43,153.1 C298.71,175.24 248.2949,204.8235 210.6149,226.9335 " fill="none" id="Trabajando-to-De_Guardia" style="stroke:#181818;stroke-width:1.0;"/><polygon fill="#181818" points="205.44,229.97,215.2267,228.8651,209.7524,227.4396,211.178,221.9653,205.44,229.97" style="stroke:#181818;stroke-width:1.0;"/><text fill="#000000" font-family="sans-serif" font-size="13" lengthAdjust="spacing" textLength="137.7632" x="284.5" y="196.0669">"Asignado a guardia"</text></g><!--link Trabajando to En_Cita--><g id="link_Trabajando_En_Cita"><path d="M405.53,153.15 C447.36,192.14 516.9,270.28 474.5,327 C456.9,350.55 381.6464,366.4018 333.5164,374.5218 " fill="none" id="Trabajando-to-En_Cita" style="stroke:#181818;stroke-width:1.0;"/><polygon fill="#181818" points="327.6,375.52,337.14,377.967,332.5303,374.6882,335.8092,370.0785,327.6,375.52" style="stroke:#181818;stroke-width:1.0;"/><text fill="#000000" font-family="sans-serif" font-size="13" lengthAdjust="spacing" textLength="114.4482" x="487.5" y="259.5669">"Atendiendo cita"</text></g><!--link En_Cita to De_Guardia--><g id="link_En_Cita_De_Guardia"><path d="M255.45,376.29 C204.32,368.79 114.8,352.34 95.5,327 C82.79,310.32 92.9124,296.7897 112.1724,283.6597 " fill="none" id="En_Cita-to-De_Guardia" style="stroke:#181818;stroke-width:1.0;"/><polygon fill="#181818" points="117.13,280.28,107.4405,282.0445,112.9987,283.0964,111.9468,288.6546,117.13,280.28" style="stroke:#181818;stroke-width:1.0;"/><text fill="#000000" font-family="sans-serif" font-size="13" lengthAdjust="spacing" textLength="230.0581" x="96.5" y="323.0669">"Finaliza cita y asignado a guardia"</text></g><!--link De_Guardia to En_Cita--><g id="link_De_Guardia_En_Cita"><path d="M215.61,257.38 C254.34,261.44 305.24,273.9 331.5,310 C342.24,324.76 336.0284,338.2234 323.2184,352.3634 " fill="none" id="De_Guardia-to-En_Cita" style="stroke:#181818;stroke-width:1.0;"/><polygon fill="#181818" points="319.19,356.81,328.1969,352.8257,322.547,353.1045,322.2681,347.4545,319.19,356.81" style="stroke:#181818;stroke-width:1.0;"/><text fill="#000000" font-family="sans-serif" font-size="13" lengthAdjust="spacing" textLength="129.2319" x="336.5" y="323.0669">"Llamado para cita"</text></g><!--link En_Cita to En_Cita--><g id="link_En_Cita_En_Cita"><path d="M327.67,370.75 C346.03,369.11 362.5,372.86 362.5,382 C362.5,391.14 352.0062,395.4238 333.6462,393.7838 " fill="none" id="En_Cita-to-En_Cita" style="stroke:#181818;stroke-width:1.0;"/><polygon fill="#181818" points="327.67,393.25,336.2784,398.0349,332.6502,393.6949,336.9902,390.0666,327.67,393.25" style="stroke:#181818;stroke-width:1.0;"/><text fill="#000000" font-family="sans-serif" font-size="13" lengthAdjust="spacing" textLength="101.2134" x="368.5" y="386.5669">"Siguiente cita"</text></g><!--link De_Guardia to De_Guardia--><g id="link_De_Guardia_De_Guardia"><path d="M215.71,243.4 C234.79,243.02 250.5,246.89 250.5,255 C250.5,263.11 240.7888,267.0995 221.7088,266.7195 " fill="none" id="De_Guardia-to-De_Guardia" style="stroke:#181818;stroke-width:1.0;"/><polygon fill="#181818" points="215.71,266.6,224.6286,270.7784,220.709,266.6996,224.7879,262.78,215.71,266.6" style="stroke:#181818;stroke-width:1.0;"/><text fill="#000000" font-family="sans-serif" font-size="13" lengthAdjust="spacing" textLength="144.5171" x="256.5" y="259.5669">"Contin&#250;a en guardia"</text></g><!--link De_Guardia to No_Trabajando--><g id="link_De_Guardia_No_Trabajando"><path d="M113.37,279.33 C101.28,287.32 89.79,297.48 82.5,310 C50.36,365.23 56.9746,438.4631 63.6046,477.8731 " fill="none" id="De_Guardia-to-No_Trabajando" style="stroke:#181818;stroke-width:1.0;"/><polygon fill="#181818" points="64.6,483.79,67.0515,474.2511,63.7705,478.8593,59.1623,475.5783,64.6,483.79" style="stroke:#181818;stroke-width:1.0;"/><text fill="#000000" font-family="sans-serif" font-size="13" lengthAdjust="spacing" textLength="100.2739" x="64.5" y="386.5669">"Finaliza turno"</text></g><!--link En_Cita to No_Trabajando--><g id="link_En_Cita_No_Trabajando"><path d="M255.34,403.36 C216.27,425.36 159.2682,457.4562 117.7282,480.8462 " fill="none" id="En_Cita-to-No_Trabajando" style="stroke:#181818;stroke-width:1.0;"/><polygon fill="#181818" points="112.5,483.79,122.3048,482.8597,116.8568,481.3368,118.3797,475.8888,112.5,483.79" style="stroke:#181818;stroke-width:1.0;"/><text fill="#000000" font-family="sans-serif" font-size="13" lengthAdjust="spacing" textLength="116.4224" x="194.5" y="450.0669">"Turno finalizado"</text></g><!--link No_Trabajando to *end*--><g id="link_No_Trabajando_*end*"><path d="M69.5,534.09 C69.5,558.06 69.5,587.7 69.5,604.94 " fill="none" id="No_Trabajando-to-*end*" style="stroke:#181818;stroke-width:1.0;"/><polygon fill="#181818" points="69.5,610.94,73.5,601.94,69.5,605.94,65.5,601.94,69.5,610.94" style="stroke:#181818;stroke-width:1.0;"/><text fill="#000000" font-family="sans-serif" font-size="13" lengthAdjust="spacing" textLength="79.2441" x="70.5" y="577.0669">"Fin del d&#237;a"</text></g><!--SRC=[RP5D3e8m48NtdcB2aeGBk30n-1CJuqPsX92HLZ86fmRBGk_a1TnoCKi1WUfstlVUcqvZFu4WM41KuWalo4BDmTinPQH0ID1LoSgRpGRPqYkPRYii1Q6XbtVA6Os2aBT3p-NNd8QaBQmb2vADa9c9YUwqtzmDCHRqH0l20_1FpzWyb1mfhqo7bdt7aEkG-mAlJUGDI-nWXvsi52hMnFKRGVAmXECug7HopUyx-cEEbtRXg67Wt5b4WqyGQuhzfCqrNrI0g5_eVG00]--></g></svg>