<svg xmlns="http://www.w3.org/2000/svg" xmlns:xlink="http://www.w3.org/1999/xlink" contentStyleType="text/css" height="639px" preserveAspectRatio="none" style="width:555px;height:639px;background:#FFFFFF;" version="1.1" viewBox="0 0 555 639" width="555px" zoomAndPan="magnify"><defs/><g><ellipse cx="214.5" cy="16" fill="#222222" rx="10" ry="10" style="stroke:#222222;stroke-width:1.0;"/><g id="No_Asignado"><rect fill="#F1F1F1" height="50" rx="12.5" ry="12.5" style="stroke:#181818;stroke-width:0.5;" width="110.5898" x="159" y="103"/><line style="stroke:#181818;stroke-width:0.5;" x1="159" x2="269.5898" y1="129.2969" y2="129.2969"/><text fill="#000000" font-family="sans-serif" font-size="14" lengthAdjust="spacing" textLength="90.5898" x="169" y="120.9951">No_Asignado</text></g><g id="Asignado"><rect fill="#F1F1F1" height="50" rx="12.5" ry="12.5" style="stroke:#181818;stroke-width:0.5;" width="84.5518" x="7" y="230"/><line style="stroke:#181818;stroke-width:0.5;" x1="7" x2="91.5518" y1="256.2969" y2="256.2969"/><text fill="#000000" font-family="sans-serif" font-size="14" lengthAdjust="spacing" textLength="64.5518" x="17" y="247.9951">Asignado</text></g><g id="En_Proceso"><rect fill="#F1F1F1" height="50" rx="12.5" ry="12.5" style="stroke:#181818;stroke-width:0.5;" width="99.6523" x="164.5" y="357"/><line style="stroke:#181818;stroke-width:0.5;" x1="164.5" x2="264.1523" y1="383.2969" y2="383.2969"/><text fill="#000000" font-family="sans-serif" font-size="14" lengthAdjust="spacing" textLength="79.6523" x="174.5" y="374.9951">En_Proceso</text></g><g id="Finalizado"><rect fill="#F1F1F1" height="50" rx="12.5" ry="12.5" style="stroke:#181818;stroke-width:0.5;" width="90.5537" x="201" y="484"/><line style="stroke:#181818;stroke-width:0.5;" x1="201" x2="291.5537" y1="510.2969" y2="510.2969"/><text fill="#000000" font-family="sans-serif" font-size="14" lengthAdjust="spacing" textLength="70.5537" x="211" y="501.9951">Finalizado</text></g><ellipse cx="350.5" cy="622" fill="none" rx="11" ry="11" style="stroke:#222222;stroke-width:1.0;"/><ellipse cx="350.5" cy="622" fill="#222222" rx="6" ry="6" style="stroke:#222222;stroke-width:1.0;"/><!--link *start* to No_Asignado--><g id="link_*start*_No_Asignado"><path d="M214.5,26 C214.5,42.63 214.5,72.66 214.5,96.87 " fill="none" id="*start*-to-No_Asignado" style="stroke:#181818;stroke-width:1.0;"/><polygon fill="#181818" points="214.5,102.87,218.5,93.87,214.5,97.87,210.5,93.87,214.5,102.87" style="stroke:#181818;stroke-width:1.0;"/><text fill="#000000" font-family="sans-serif" font-size="13" lengthAdjust="spacing" textLength="112.9248" x="215.5" y="69.0669">"Sin asignar a&#250;n"</text></g><!--link No_Asignado to Asignado--><g id="link_No_Asignado_Asignado"><path d="M158.84,138.16 C111.43,147.22 48.64,162.69 33.5,183 C23.46,196.48 25.6529,209.6635 32.4929,224.4635 " fill="none" id="No_Asignado-to-Asignado" style="stroke:#181818;stroke-width:1.0;"/><polygon fill="#181818" points="35.01,229.91,34.8653,220.0622,32.9124,225.3713,27.6033,223.4184,35.01,229.91" style="stroke:#181818;stroke-width:1.0;"/><text fill="#000000" font-family="sans-serif" font-size="13" lengthAdjust="spacing" textLength="153.4927" x="34.5" y="196.0669">"Tratamiento prescrito"</text></g><!--link Asignado to En_Proceso--><g id="link_Asignado_En_Proceso"><path d="M46.93,280.22 C46.67,295.26 48.91,314.11 59.5,327 C85.01,358.05 123.5169,370.3126 158.2869,375.9326 " fill="none" id="Asignado-to-En_Proceso" style="stroke:#181818;stroke-width:1.0;"/><polygon fill="#181818" points="164.21,376.89,155.9636,371.5052,159.2741,376.0922,154.6871,379.4027,164.21,376.89" style="stroke:#181818;stroke-width:1.0;"/><text fill="#000000" font-family="sans-serif" font-size="13" lengthAdjust="spacing" textLength="127.5371" x="60.5" y="323.0669">"Inicia tratamiento"</text></g><!--link En_Proceso to Finalizado--><g id="link_En_Proceso_Finalizado"><path d="M220.67,407.1 C226.34,429.24 233.202,456.0474 238.862,478.1574 " fill="none" id="En_Proceso-to-Finalizado" style="stroke:#181818;stroke-width:1.0;"/><polygon fill="#181818" points="240.35,483.97,241.9931,474.2592,239.11,479.1262,234.243,476.2431,240.35,483.97" style="stroke:#181818;stroke-width:1.0;"/><text fill="#000000" font-family="sans-serif" font-size="13" lengthAdjust="spacing" textLength="155.7461" x="232.5" y="450.0669">"Completa tratamiento"</text></g><!--link En_Proceso to No_Asignado--><g id="link_En_Proceso_No_Asignado"><path d="M214.5,356.91 C214.5,308.8 214.5,207.33 214.5,159.16 " fill="none" id="En_Proceso-to-No_Asignado" style="stroke:#181818;stroke-width:1.0;"/><polygon fill="#181818" points="214.5,153.16,210.5,162.16,214.5,158.16,218.5,162.16,214.5,153.16" style="stroke:#181818;stroke-width:1.0;"/><text fill="#000000" font-family="sans-serif" font-size="13" lengthAdjust="spacing" textLength="180.5781" x="215.5" y="259.5669">"Tratamiento interrumpido"</text></g><!--link Finalizado to *end*--><g id="link_Finalizado_*end*"><path d="M246.26,534.05 C247.29,549.02 250.91,567.86 261.5,581 C281.59,605.93 314.6287,614.766 333.6287,618.256 " fill="none" id="Finalizado-to-*end*" style="stroke:#181818;stroke-width:1.0;"/><polygon fill="#181818" points="339.53,619.34,331.4007,613.7799,334.6123,618.4367,329.9554,621.6482,339.53,619.34" style="stroke:#181818;stroke-width:1.0;"/><text fill="#000000" font-family="sans-serif" font-size="13" lengthAdjust="spacing" textLength="160.1641" x="262.5" y="577.0669">"Seguimiento concluido"</text></g><!--link No_Asignado to *end*--><g id="link_No_Asignado_*end*"><path d="M270.19,134.33 C339.68,144.41 449.5,173.13 449.5,254 C449.5,254 449.5,254 449.5,510 C449.5,543.04 448.68,555.65 427.5,581 C409.73,602.27 383.4919,611.9913 366.9019,616.7013 " fill="none" id="No_Asignado-to-*end*" style="stroke:#181818;stroke-width:1.0;"/><polygon fill="#181818" points="361.13,618.34,370.8803,619.7299,365.9399,616.9744,368.6954,612.0341,361.13,618.34" style="stroke:#181818;stroke-width:1.0;"/><text fill="#000000" font-family="sans-serif" font-size="13" lengthAdjust="spacing" textLength="96.7637" x="450.5" y="386.5669">"No requerido"</text></g><!--SRC=[NOyz2eD048LxJp5O2buWHI241D9887OYigo33EYC6NUR72rjBfRi6l2d7FY-z-PLMGrvVeH2cjD47PjM3f0-YC74Ky5ytfmcoGg8meekrJWp4B8J61Kdg-GaJJRuXPkxYiKf23ScImRSulqA5Y8ALsBJqsjkECimzkXsoixOJbW_HUnGrGyZjQ5fYOvUbTLXCdQU_hmLjhsFy7xs31S2Ya-F6fWl]--></g></svg>