<svg xmlns="http://www.w3.org/2000/svg" xmlns:xlink="http://www.w3.org/1999/xlink" contentStyleType="text/css" height="893px" preserveAspectRatio="none" style="width:619px;height:893px;background:#FFFFFF;" version="1.1" viewBox="0 0 619 893" width="619px" zoomAndPan="magnify"><defs/><g><ellipse cx="175" cy="16" fill="#222222" rx="10" ry="10" style="stroke:#222222;stroke-width:1.0;"/><g id="Alta"><rect fill="#F1F1F1" height="50" rx="12.5" ry="12.5" style="stroke:#181818;stroke-width:0.5;" width="50" x="121" y="230"/><line style="stroke:#181818;stroke-width:0.5;" x1="121" x2="171" y1="256.2969" y2="256.2969"/><text fill="#000000" font-family="sans-serif" font-size="14" lengthAdjust="spacing" textLength="27.5352" x="132.2324" y="247.9951">Alta</text></g><g id="Enfermo"><rect fill="#F1F1F1" height="50" rx="12.5" ry="12.5" style="stroke:#181818;stroke-width:0.5;" width="79.2197" x="290.5" y="103"/><line style="stroke:#181818;stroke-width:0.5;" x1="290.5" x2="369.7197" y1="129.2969" y2="129.2969"/><text fill="#000000" font-family="sans-serif" font-size="14" lengthAdjust="spacing" textLength="59.2197" x="300.5" y="120.9951">Enfermo</text></g><g id="Citado"><rect fill="#F1F1F1" height="50" rx="12.5" ry="12.5" style="stroke:#181818;stroke-width:0.5;" width="65.1855" x="304.5" y="357"/><line style="stroke:#181818;stroke-width:0.5;" x1="304.5" x2="369.6855" y1="383.2969" y2="383.2969"/><text fill="#000000" font-family="sans-serif" font-size="14" lengthAdjust="spacing" textLength="45.1855" x="314.5" y="374.9951">Citado</text></g><g id="No_Citado"><rect fill="#F1F1F1" height="50" rx="12.5" ry="12.5" style="stroke:#181818;stroke-width:0.5;" width="91.2236" x="320.5" y="484"/><line style="stroke:#181818;stroke-width:0.5;" x1="320.5" x2="411.7236" y1="510.2969" y2="510.2969"/><text fill="#000000" font-family="sans-serif" font-size="14" lengthAdjust="spacing" textLength="71.2236" x="330.5" y="501.9951">No_Citado</text></g><g id="En_Espera"><rect fill="#F1F1F1" height="50" rx="12.5" ry="12.5" style="stroke:#181818;stroke-width:0.5;" width="92.6934" x="236.5" y="611"/><line style="stroke:#181818;stroke-width:0.5;" x1="236.5" x2="329.1934" y1="637.2969" y2="637.2969"/><text fill="#000000" font-family="sans-serif" font-size="14" lengthAdjust="spacing" textLength="72.6934" x="246.5" y="628.9951">En_Espera</text></g><g id="En_Tratamiento"><rect fill="#F1F1F1" height="50" rx="12.5" ry="12.5" style="stroke:#181818;stroke-width:0.5;" width="130.7422" x="62.5" y="738"/><line style="stroke:#181818;stroke-width:0.5;" x1="62.5" x2="193.2422" y1="764.2969" y2="764.2969"/><text fill="#000000" font-family="sans-serif" font-size="14" lengthAdjust="spacing" textLength="110.7422" x="72.5" y="755.9951">En_Tratamiento</text></g><ellipse cx="35" cy="876" fill="none" rx="11" ry="11" style="stroke:#222222;stroke-width:1.0;"/><ellipse cx="35" cy="876" fill="#222222" rx="6" ry="6" style="stroke:#222222;stroke-width:1.0;"/><!--link *start* to Alta--><g id="link_*start*_Alta"><path d="M173.82,26.04 C171.78,41.7 167.47,74.92 164,103 C158.46,147.8 152.9879,194.1707 149.4979,223.9707 " fill="none" id="*start*-to-Alta" style="stroke:#181818;stroke-width:1.0;"/><polygon fill="#181818" points="148.8,229.93,153.8197,221.4564,149.3816,224.9639,145.874,220.5258,148.8,229.93" style="stroke:#181818;stroke-width:1.0;"/><text fill="#000000" font-family="sans-serif" font-size="13" lengthAdjust="spacing" textLength="107.9546" x="165" y="132.5669">"Registro inicial"</text></g><!--link *start* to Enfermo--><g id="link_*start*_Enfermo"><path d="M182.9,22.61 C203.44,37.19 254.5969,73.4876 291.2769,99.5176 " fill="none" id="*start*-to-Enfermo" style="stroke:#181818;stroke-width:1.0;"/><polygon fill="#181818" points="296.17,102.99,291.1453,94.5193,292.0924,100.0963,286.5154,101.0435,296.17,102.99" style="stroke:#181818;stroke-width:1.0;"/><text fill="#000000" font-family="sans-serif" font-size="13" lengthAdjust="spacing" textLength="132.4248" x="253" y="69.0669">"Presenta s&#237;ntomas"</text></g><!--link Enfermo to Citado--><g id="link_Enfermo_Citado"><path d="M330.67,153.16 C332.01,201.33 334.8229,302.8023 336.1629,350.9123 " fill="none" id="Enfermo-to-Citado" style="stroke:#181818;stroke-width:1.0;"/><polygon fill="#181818" points="336.33,356.91,340.0779,347.8021,336.1908,351.9119,332.081,348.0249,336.33,356.91" style="stroke:#181818;stroke-width:1.0;"/><text fill="#000000" font-family="sans-serif" font-size="13" lengthAdjust="spacing" textLength="121.8052" x="335" y="259.5669">"Cita programada"</text></g><!--link Enfermo to Alta--><g id="link_Enfermo_Alta"><path d="M290.42,143.59 C259.07,155.57 218.26,172.26 204,183 C186.96,195.83 175.3075,209.7623 164.7875,224.8123 " fill="none" id="Enfermo-to-Alta" style="stroke:#181818;stroke-width:1.0;"/><polygon fill="#181818" points="161.35,229.73,169.7847,224.6451,164.2146,225.6319,163.2278,220.0618,161.35,229.73" style="stroke:#181818;stroke-width:1.0;"/><text fill="#000000" font-family="sans-serif" font-size="13" lengthAdjust="spacing" textLength="100.8896" x="205" y="196.0669">"Recuperaci&#243;n"</text></g><!--link Alta to Citado--><g id="link_Alta_Citado"><path d="M166.21,280.3 C179.5,295.18 197.92,313.83 217,327 C244.26,345.82 273.5147,358.5529 298.6347,367.8729 " fill="none" id="Alta-to-Citado" style="stroke:#181818;stroke-width:1.0;"/><polygon fill="#181818" points="304.26,369.96,297.2134,363.0792,299.5722,368.2208,294.4306,370.5796,304.26,369.96" style="stroke:#181818;stroke-width:1.0;"/><text fill="#000000" font-family="sans-serif" font-size="13" lengthAdjust="spacing" textLength="87.166" x="218" y="323.0669">"Solicita cita"</text></g><!--link Citado to Citado--><g id="link_Citado_Citado"><path d="M369.64,370.93 C387.79,368.87 404.5,372.55 404.5,382 C404.5,391.45 393.7517,395.8066 375.6017,393.7466 " fill="none" id="Citado-to-Citado" style="stroke:#181818;stroke-width:1.0;"/><polygon fill="#181818" points="369.64,393.07,378.1315,398.0595,374.6081,393.6339,379.0337,390.1105,369.64,393.07" style="stroke:#181818;stroke-width:1.0;"/><text fill="#000000" font-family="sans-serif" font-size="13" lengthAdjust="spacing" textLength="120.688" x="410.5" y="386.5669">"Reprograma cita"</text></g><!--link Citado to No_Citado--><g id="link_Citado_No_Citado"><path d="M338.69,407.24 C340,421.08 342.24,438.67 346,454 C348.45,464 350.0068,469.1035 353.5668,478.3135 " fill="none" id="Citado-to-No_Citado" style="stroke:#181818;stroke-width:1.0;"/><polygon fill="#181818" points="355.73,483.91,356.2161,474.0731,353.9273,479.2463,348.7542,476.9575,355.73,483.91" style="stroke:#181818;stroke-width:1.0;"/><text fill="#000000" font-family="sans-serif" font-size="13" lengthAdjust="spacing" textLength="108.1387" x="347" y="450.0669">"Cita cancelada"</text></g><!--link Citado to En_Espera--><g id="link_Citado_En_Espera"><path d="M369.54,387.34 C398.78,393.15 440.11,406.54 460,437 C495,490.58 498.08,529.56 460,581 C430.27,621.15 377.3376,632.065 335.6576,634.745 " fill="none" id="Citado-to-En_Espera" style="stroke:#181818;stroke-width:1.0;"/><polygon fill="#181818" points="329.67,635.13,338.9081,638.5443,334.6597,634.8092,338.3948,630.5607,329.67,635.13" style="stroke:#181818;stroke-width:1.0;"/><text fill="#000000" font-family="sans-serif" font-size="13" lengthAdjust="spacing" textLength="123.7476" x="488" y="513.5669">"Acude a consulta"</text></g><!--link No_Citado to En_Espera--><g id="link_No_Citado_En_Espera"><path d="M320.43,527.53 C304.73,536.03 288.87,547.95 280,564 C272.18,578.14 272.0054,590.5102 274.8154,604.9702 " fill="none" id="No_Citado-to-En_Espera" style="stroke:#181818;stroke-width:1.0;"/><polygon fill="#181818" points="275.96,610.86,278.1697,601.2622,275.0062,605.9518,270.3166,602.7883,275.96,610.86" style="stroke:#181818;stroke-width:1.0;"/><text fill="#000000" font-family="sans-serif" font-size="13" lengthAdjust="spacing" textLength="174.897" x="281" y="577.0669">"Solicita atenci&#243;n urgente"</text></g><!--link En_Espera to En_Tratamiento--><g id="link_En_Espera_En_Tratamiento"><path d="M253.11,661.1 C225.67,683.24 189.8807,712.0938 162.4607,734.2038 " fill="none" id="En_Espera-to-En_Tratamiento" style="stroke:#181818;stroke-width:1.0;"/><polygon fill="#181818" points="157.79,737.97,167.3069,735.4345,161.6823,734.8315,162.2853,729.2069,157.79,737.97" style="stroke:#181818;stroke-width:1.0;"/><text fill="#000000" font-family="sans-serif" font-size="13" lengthAdjust="spacing" textLength="132.5898" x="215" y="704.0669">"Consulta realizada"</text></g><!--link En_Tratamiento to Alta--><g id="link_En_Tratamiento_Alta"><path d="M128,737.57 C128,712.37 128,671.94 128,637 C128,381 128,381 128,381 C128,345.7 133.8839,311.2313 139.1639,286.1513 " fill="none" id="En_Tratamiento-to-Alta" style="stroke:#181818;stroke-width:1.0;"/><polygon fill="#181818" points="140.4,280.28,134.6317,288.2629,139.3699,285.1727,142.4601,289.911,140.4,280.28" style="stroke:#181818;stroke-width:1.0;"/><text fill="#000000" font-family="sans-serif" font-size="13" lengthAdjust="spacing" textLength="155.7461" x="129" y="513.5669">"Completa tratamiento"</text></g><!--link En_Tratamiento to *end*--><g id="link_En_Tratamiento_*end*"><path d="M107.82,788.09 C86.88,813.08 59.175,846.1523 45.525,862.4323 " fill="none" id="En_Tratamiento-to-*end*" style="stroke:#181818;stroke-width:1.0;"/><polygon fill="#181818" points="41.67,867.03,50.5176,862.7034,44.8825,863.1986,44.3873,857.5634,41.67,867.03" style="stroke:#181818;stroke-width:1.0;"/><text fill="#000000" font-family="sans-serif" font-size="13" lengthAdjust="spacing" textLength="145.8374" x="83" y="831.0669">"Finaliza seguimiento"</text></g><!--link Alta to *end*--><g id="link_Alta_*end*"><path d="M120.97,265.07 C80.7,281.46 6,320.07 6,381 C6,381 6,381 6,764 C6,802.84 20.4757,841.3912 28.4957,860.1912 " fill="none" id="Alta-to-*end*" style="stroke:#181818;stroke-width:1.0;"/><polygon fill="#181818" points="30.85,865.71,30.9978,855.8623,28.8881,861.111,23.6393,859.0013,30.85,865.71" style="stroke:#181818;stroke-width:1.0;"/><text fill="#000000" font-family="sans-serif" font-size="13" lengthAdjust="spacing" textLength="97.8682" x="7" y="577.0669">"Caso cerrado"</text></g><!--SRC=[RT5BQiGm30RWVKuXl2pC1Ree325TbZBjRYY3SDHWy2F8zgPtwgf7c8jLzZYPX7OJWlL5-gsS7pxWS7Y2eqtu2Ef4auc90nXlj46hkdC3W_yaTa7CArCadn3YzTkdu32ghclbIdkJS2oolC3COM9qEABQgNMYpZCnQdFzyTAe7E-xl0KhMUIqF4JS2djpecLCKnlq4YxxH1gz9bi3RTZWBqCiIOGTTHu9H0OViwrJrov_y9eF4_bw3SWyoOQexgN1vRDtneJEIBdcQGE02QtvQalQeksk-k1cIwBJlVwlbvyc_DdusXGYJTai_BxXc-en1j34B7TJlm00]--></g></svg>